<svg width="24" height="32" viewBox="0 0 24 32" fill="none" xmlns="http://www.w3.org/2000/svg">
<path d="M23.6534 6.61333C23.48 5.90667 22.76 5.48 22.0534 5.64C18.88 6.36 15.32 6.66667 12 6.66667C8.68003 6.66667 5.12003 6.36 1.9467 5.65333C1.2267 5.49333 0.520029 5.90667 0.346696 6.62667L0.320029 6.69333C0.146696 7.41333 0.573363 8.16 1.29336 8.32C3.45336 8.81333 5.7867 9.14667 8.00003 9.33333V24C8.00003 24.7333 8.60003 25.3333 9.33336 25.3333C10.0667 25.3333 10.6667 24.7333 10.6667 24V17.3333H13.3334V24C13.3334 24.7333 13.9334 25.3333 14.6667 25.3333C15.4 25.3333 16 24.7333 16 24V9.33333C18.2134 9.14667 20.5467 8.81333 22.7067 8.32C23.4267 8.16 23.8534 7.41333 23.68 6.69333L23.6534 6.61333ZM12 5.33333C13.4667 5.33333 14.6667 4.13333 14.6667 2.66667C14.6667 1.2 13.4667 0 12 0C10.5334 0 9.33336 1.2 9.33336 2.66667C9.33336 4.13333 10.5334 5.33333 12 5.33333ZM6.6667 32C7.40003 32 8.00003 31.4 8.00003 30.6667C8.00003 29.9333 7.40003 29.3333 6.6667 29.3333C5.93336 29.3333 5.33336 29.9333 5.33336 30.6667C5.33336 31.4 5.93336 32 6.6667 32ZM12 32C12.7334 32 13.3334 31.4 13.3334 30.6667C13.3334 29.9333 12.7334 29.3333 12 29.3333C11.2667 29.3333 10.6667 29.9333 10.6667 30.6667C10.6667 31.4 11.2667 32 12 32ZM17.3334 32C18.0667 32 18.6667 31.4 18.6667 30.6667C18.6667 29.9333 18.0667 29.3333 17.3334 29.3333C16.6 29.3333 16 29.9333 16 30.6667C16 31.4 16.6 32 17.3334 32Z" fill="url(#paint0_linear_950_13459)"/>
<path d="M23.6534 6.61333C23.48 5.90667 22.76 5.48 22.0534 5.64C18.88 6.36 15.32 6.66667 12 6.66667C8.68003 6.66667 5.12003 6.36 1.9467 5.65333C1.2267 5.49333 0.520029 5.90667 0.346696 6.62667L0.320029 6.69333C0.146696 7.41333 0.573363 8.16 1.29336 8.32C3.45336 8.81333 5.7867 9.14667 8.00003 9.33333V24C8.00003 24.7333 8.60003 25.3333 9.33336 25.3333C10.0667 25.3333 10.6667 24.7333 10.6667 24V17.3333H13.3334V24C13.3334 24.7333 13.9334 25.3333 14.6667 25.3333C15.4 25.3333 16 24.7333 16 24V9.33333C18.2134 9.14667 20.5467 8.81333 22.7067 8.32C23.4267 8.16 23.8534 7.41333 23.68 6.69333L23.6534 6.61333ZM12 5.33333C13.4667 5.33333 14.6667 4.13333 14.6667 2.66667C14.6667 1.2 13.4667 0 12 0C10.5334 0 9.33336 1.2 9.33336 2.66667C9.33336 4.13333 10.5334 5.33333 12 5.33333ZM6.6667 32C7.40003 32 8.00003 31.4 8.00003 30.6667C8.00003 29.9333 7.40003 29.3333 6.6667 29.3333C5.93336 29.3333 5.33336 29.9333 5.33336 30.6667C5.33336 31.4 5.93336 32 6.6667 32ZM12 32C12.7334 32 13.3334 31.4 13.3334 30.6667C13.3334 29.9333 12.7334 29.3333 12 29.3333C11.2667 29.3333 10.6667 29.9333 10.6667 30.6667C10.6667 31.4 11.2667 32 12 32ZM17.3334 32C18.0667 32 18.6667 31.4 18.6667 30.6667C18.6667 29.9333 18.0667 29.3333 17.3334 29.3333C16.6 29.3333 16 29.9333 16 30.6667C16 31.4 16.6 32 17.3334 32Z" fill="url(#paint1_linear_950_13459)"/>
<defs>
<linearGradient id="paint0_linear_950_13459" x1="21.6648" y1="-0.930233" x2="-11.2297" y2="6.56008" gradientUnits="userSpaceOnUse">
<stop stop-color="#153E9B"/>
<stop offset="1" stop-color="#0D3770"/>
</linearGradient>
<linearGradient id="paint1_linear_950_13459" x1="21.6648" y1="-0.930233" x2="-11.2297" y2="6.56008" gradientUnits="userSpaceOnUse">
<stop stop-color="#BE594F"/>
<stop offset="1" stop-color="#911005"/>
</linearGradient>
</defs>
</svg>
