<svg width="40" height="40" viewBox="0 0 40 40" fill="none" xmlns="http://www.w3.org/2000/svg">
<rect width="40" height="40" rx="20" fill="#A63329" fill-opacity="0.08"/>
<path fill-rule="evenodd" clip-rule="evenodd" d="M12.2393 18.3912C12.2537 14.1506 15.703 10.7246 19.9436 10.7391C24.1842 10.7535 27.6102 14.2028 27.5958 18.4434V18.5303C27.5436 21.2868 26.0044 23.8347 24.1175 25.826C23.0383 26.9466 21.8332 27.9387 20.5262 28.7825C20.1767 29.0848 19.6583 29.0848 19.3088 28.7825C17.3603 27.5142 15.6502 25.913 14.2566 24.0521C13.0146 22.4293 12.3094 20.4596 12.2393 18.4173V18.3912Z" stroke="#A63329" stroke-width="1.5" stroke-linecap="round" stroke-linejoin="round"/>
<path d="M19.9169 21C21.276 21 22.3778 19.8982 22.3778 18.5391C22.3778 17.18 21.276 16.0782 19.9169 16.0782C18.5578 16.0782 17.4561 17.18 17.4561 18.5391C17.4561 19.8982 18.5578 21 19.9169 21Z" stroke="#A63329" stroke-width="1.5" stroke-linecap="round" stroke-linejoin="round"/>
</svg>
