<svg width="50" height="50" viewBox="0 0 50 50" fill="none" xmlns="http://www.w3.org/2000/svg">
<rect width="50" height="50" rx="25" transform="matrix(-1 0 0 1 50 0)" fill="#F2F2F2"/>
<g clip-path="url(#clip0_425_8362)">
<path d="M16.0844 24.0036H31.524L26.241 18.6865C26.0549 18.4996 25.9502 18.246 25.9499 17.9815C25.9496 17.7169 26.0537 17.4631 26.2394 17.2758C26.425 17.0885 26.677 16.9831 26.9399 16.9828C27.2027 16.9825 27.4549 17.0873 27.641 17.2741L34.6146 24.2927C34.8001 24.4796 34.9043 24.733 34.9043 24.9972C34.9043 25.2614 34.8001 25.5148 34.6146 25.7017L27.641 32.727C27.5503 32.8249 27.441 32.9035 27.3195 32.958C27.198 33.0125 27.0668 33.0418 26.9338 33.0441C26.8008 33.0465 26.6687 33.0219 26.5453 32.9717C26.422 32.9216 26.3099 32.847 26.2159 32.7523C26.1218 32.6576 26.0477 32.5448 25.9978 32.4207C25.948 32.2966 25.9236 32.1636 25.9259 32.0297C25.9282 31.8959 25.9574 31.7639 26.0115 31.6416C26.0656 31.5193 26.1437 31.4092 26.241 31.3179L31.524 26.0008H16.0844C15.8217 26.0008 15.5697 25.8958 15.384 25.7088C15.1982 25.5219 15.0939 25.2683 15.0939 25.0039C15.0939 24.7395 15.1982 24.4859 15.384 24.2989C15.5697 24.112 15.8217 24.0069 16.0844 24.0069V24.0036Z" fill="black"/>
</g>
<defs>
<clipPath id="clip0_425_8362">
<rect width="19.8113" height="16.0377" fill="white" transform="matrix(-1 0 0 1 34.9058 16.9811)"/>
</clipPath>
</defs>
</svg>
