<svg width="16" height="10" viewBox="0 0 16 10" fill="none" xmlns="http://www.w3.org/2000/svg">
<path d="M14.4632 3.83596L2.04833 3.94089L5.24833 0.957048C5.36104 0.852193 5.42447 0.70988 5.42466 0.561417C5.42485 0.412954 5.36178 0.270502 5.24933 0.165399C5.13687 0.0602962 4.98425 0.00115182 4.82503 0.000976951C4.66581 0.000802083 4.51304 0.0596111 4.40033 0.164467L0.176326 4.10313C0.0639661 4.20803 0.000854492 4.35023 0.000854492 4.49849C0.000854492 4.64675 0.0639661 4.78895 0.176326 4.89385L4.40033 8.83624C4.45526 8.89121 4.5215 8.9353 4.5951 8.96588C4.6687 8.99646 4.74815 9.0129 4.82871 9.01422C4.90927 9.01555 4.98929 9.00173 5.064 8.97359C5.13871 8.94545 5.20658 8.90357 5.26356 8.85045C5.32053 8.79732 5.36545 8.73404 5.39562 8.66437C5.4258 8.59471 5.44062 8.52009 5.4392 8.44497C5.43778 8.36985 5.42014 8.29577 5.38735 8.22714C5.35456 8.15851 5.30728 8.09675 5.24833 8.04553L2.04833 5.06169L14.4632 4.95677C14.6223 4.95677 14.7749 4.89782 14.8874 4.7929C14.9999 4.68798 15.0632 4.54568 15.0632 4.3973C15.0632 4.24892 14.9999 4.10662 14.8874 4.00169C14.7749 3.89677 14.6223 3.83783 14.4632 3.83783V3.83596Z" fill="#A63329"/>
</svg>
