<svg width="16" height="10" viewBox="0 0 16 10" fill="none" xmlns="http://www.w3.org/2000/svg">
<path d="M14.4633 3.83596L2.04845 3.94089L5.24845 0.957048C5.36117 0.852193 5.42459 0.70988 5.42478 0.561417C5.42497 0.412954 5.3619 0.270502 5.24945 0.165399C5.137 0.0602962 4.98437 0.00115182 4.82516 0.000976951C4.66594 0.000802083 4.51317 0.0596111 4.40045 0.164467L0.176449 4.10313C0.0640882 4.20803 0.000976563 4.35023 0.000976562 4.49849C0.000976563 4.64675 0.0640882 4.78895 0.176449 4.89385L4.40045 8.83624C4.45538 8.89121 4.52162 8.9353 4.59522 8.96588C4.66882 8.99646 4.74827 9.0129 4.82883 9.01422C4.90939 9.01555 4.98942 9.00173 5.06413 8.97359C5.13884 8.94545 5.2067 8.90357 5.26368 8.85045C5.32065 8.79732 5.36557 8.73404 5.39575 8.66437C5.42592 8.59471 5.44074 8.52009 5.43932 8.44497C5.4379 8.36985 5.42027 8.29577 5.38747 8.22714C5.35468 8.15851 5.3074 8.09675 5.24845 8.04553L2.04845 5.06169L14.4633 4.95677C14.6224 4.95677 14.775 4.89782 14.8875 4.7929C15.0001 4.68798 15.0633 4.54568 15.0633 4.3973C15.0633 4.24892 15.0001 4.10662 14.8875 4.00169C14.775 3.89677 14.6224 3.83783 14.4633 3.83783V3.83596Z" fill="white"/>
</svg>
