<svg width="19" height="19" viewBox="0 0 19 19" fill="none" xmlns="http://www.w3.org/2000/svg">
<path d="M14.2751 6.29993C14.2751 5.04678 13.7773 3.84497 12.8912 2.95886C12.0051 2.07276 10.8033 1.57495 9.55011 1.57495C8.29697 1.57495 7.09515 2.07276 6.20905 2.95886C5.32294 3.84497 4.82513 5.04678 4.82513 6.29993C4.82513 11.8124 2.46265 13.3874 2.46265 13.3874H16.6376C16.6376 13.3874 14.2751 11.8124 14.2751 6.29993Z" stroke="white" stroke-linecap="round" stroke-linejoin="round"/>
<path d="M10.9125 16.5374C10.774 16.776 10.5753 16.9741 10.3362 17.1119C10.0971 17.2496 9.82603 17.3221 9.55011 17.3221C9.27419 17.3221 9.00311 17.2496 8.76401 17.1119C8.52492 16.9741 8.32619 16.776 8.18774 16.5374" stroke="white" stroke-linecap="round" stroke-linejoin="round"/>
</svg>
