<svg width="30" height="36" viewBox="0 0 30 36" fill="none" xmlns="http://www.w3.org/2000/svg">
<path d="M14.7025 6.01795V31.6807C8.71629 31.6807 3.8514 26.9243 3.8514 21.0648C3.8514 18.2435 4.97267 15.585 7.01629 13.5775L14.7025 6.01795ZM14.7025 0.936035L4.48437 10.9914C1.86203 13.5775 0.234375 17.1403 0.234375 21.0648C0.234375 28.9318 6.70884 35.2977 14.7025 35.2977C22.6961 35.2977 29.1705 28.9318 29.1705 21.0648C29.1705 17.1403 27.5429 13.5775 24.9205 10.9914L14.7025 0.936035Z" fill="url(#paint0_linear_664_5742)"/>
<path d="M14.7025 6.01795V31.6807C8.71629 31.6807 3.8514 26.9243 3.8514 21.0648C3.8514 18.2435 4.97267 15.585 7.01629 13.5775L14.7025 6.01795ZM14.7025 0.936035L4.48437 10.9914C1.86203 13.5775 0.234375 17.1403 0.234375 21.0648C0.234375 28.9318 6.70884 35.2977 14.7025 35.2977C22.6961 35.2977 29.1705 28.9318 29.1705 21.0648C29.1705 17.1403 27.5429 13.5775 24.9205 10.9914L14.7025 0.936035Z" fill="white"/>
<defs>
<linearGradient id="paint0_linear_664_5742" x1="26.6349" y1="-0.0628517" x2="-13.3432" y2="10.4039" gradientUnits="userSpaceOnUse">
<stop stop-color="#153E9B"/>
<stop offset="1" stop-color="#0D3770"/>
</linearGradient>
</defs>
</svg>
