<svg width="30" height="36" viewBox="0 0 30 36" fill="none" xmlns="http://www.w3.org/2000/svg">
<path d="M14.702 6.01795V31.6807C8.7158 31.6807 3.85091 26.9243 3.85091 21.0648C3.85091 18.2435 4.97218 15.585 7.0158 13.5775L14.702 6.01795ZM14.702 0.936035L4.48389 10.9914C1.86155 13.5775 0.233887 17.1403 0.233887 21.0648C0.233887 28.9318 6.70835 35.2977 14.702 35.2977C22.6956 35.2977 29.1701 28.9318 29.1701 21.0648C29.1701 17.1403 27.5424 13.5775 24.9201 10.9914L14.702 0.936035Z" fill="url(#paint0_linear_566_10414)"/>
<path d="M14.702 6.01795V31.6807C8.7158 31.6807 3.85091 26.9243 3.85091 21.0648C3.85091 18.2435 4.97218 15.585 7.0158 13.5775L14.702 6.01795ZM14.702 0.936035L4.48389 10.9914C1.86155 13.5775 0.233887 17.1403 0.233887 21.0648C0.233887 28.9318 6.70835 35.2977 14.702 35.2977C22.6956 35.2977 29.1701 28.9318 29.1701 21.0648C29.1701 17.1403 27.5424 13.5775 24.9201 10.9914L14.702 0.936035Z" fill="url(#paint1_linear_566_10414)"/>
<defs>
<linearGradient id="paint0_linear_566_10414" x1="26.6344" y1="-0.0628517" x2="-13.3437" y2="10.4039" gradientUnits="userSpaceOnUse">
<stop stop-color="#153E9B"/>
<stop offset="1" stop-color="#0D3770"/>
</linearGradient>
<linearGradient id="paint1_linear_566_10414" x1="26.6344" y1="-0.0628517" x2="-13.3437" y2="10.4039" gradientUnits="userSpaceOnUse">
<stop stop-color="#BE594F"/>
<stop offset="1" stop-color="#911005"/>
</linearGradient>
</defs>
</svg>
