<svg width="15" height="14" viewBox="0 0 15 14" fill="none" xmlns="http://www.w3.org/2000/svg">
<path d="M11.1111 3.66667L8.33777 7.24667" stroke="#B33F35" stroke-linecap="round" stroke-linejoin="round"/>
<path d="M6.05554 8.33333C6.05554 7.97971 6.20772 7.64057 6.47861 7.39052C6.7495 7.14048 7.1169 7 7.49999 7C7.88308 7 8.25048 7.14048 8.52136 7.39052C8.79225 7.64057 8.94443 7.97971 8.94443 8.33333" stroke="#B33F35" stroke-linecap="round" stroke-linejoin="round"/>
<path d="M4.61111 13H10.3889M13.2778 10.3333H1.72222C1.53068 10.3333 1.34698 10.2631 1.21153 10.1381C1.07609 10.013 1 9.84348 1 9.66667V1.66667C1 1.48986 1.07609 1.32029 1.21153 1.19526C1.34698 1.07024 1.53068 1 1.72222 1H13.2778C13.4693 1 13.653 1.07024 13.7885 1.19526C13.9239 1.32029 14 1.48986 14 1.66667V9.66667C14 9.84348 13.9239 10.013 13.7885 10.1381C13.653 10.2631 13.4693 10.3333 13.2778 10.3333ZM8.22222 10.3333H6.77778L6.05556 13H8.94444L8.22222 10.3333Z" stroke="#B33F35" stroke-linecap="round" stroke-linejoin="round"/>
</svg>
