<svg width="10" height="10" viewBox="0 0 10 10" transform="rotate(90 0 0)" fill="none" xmlns="http://www.w3.org/2000/svg">
<path d="M0.499045 0H5.79928C5.93189 0 6.05908 0.0526807 6.15285 0.146453C6.24662 0.240225 6.2993 0.367408 6.2993 0.500022C6.2993 0.632636 6.24662 0.759819 6.15285 0.853591C6.05908 0.947363 5.93189 1.00004 5.79928 1.00004H1.70577L9.85279 9.14707C9.94643 9.24082 9.99902 9.36791 9.99902 9.50042C9.99902 9.63292 9.94643 9.76001 9.85279 9.85377C9.75904 9.9474 9.63195 10 9.49944 10C9.36694 10 9.23985 9.9474 9.14609 9.85377L0.999067 1.70674V5.80026C0.999067 5.93287 0.946386 6.06005 0.852614 6.15382C0.758842 6.2476 0.631659 6.30028 0.499045 6.30028C0.366431 6.30028 0.239249 6.2476 0.145477 6.15382C0.0517042 6.06005 -0.000976762 5.93287 -0.000976762 5.80026V0.500022C-0.000976762 0.367408 0.0517042 0.240225 0.145477 0.146453C0.239249 0.0526807 0.366431 0 0.499045 0V0Z" fill="white"/>
</svg>
