<svg width="51" height="51" viewBox="0 0 51 51" fill="none" xmlns="http://www.w3.org/2000/svg">
<path opacity="0.2" d="M42.7429 0.780029H8.74292C4.60078 0.780029 1.24292 4.13789 1.24292 8.28003V42.28C1.24292 46.4222 4.60078 49.78 8.74292 49.78H42.7429C46.8851 49.78 50.2429 46.4222 50.2429 42.28V8.28003C50.2429 4.13789 46.8851 0.780029 42.7429 0.780029Z" stroke="white"/>
<path d="M29.3699 16.597H31.7429V12.463C31.3339 12.407 29.9249 12.28 28.2849 12.28C24.8629 12.28 22.5189 14.433 22.5189 18.389V22.03H18.7429V26.652H22.5189V38.28H27.1489V26.653H30.7719L31.3479 22.031H27.1479V18.847C27.1489 17.511 27.5089 16.597 29.3699 16.597Z" fill="white"/>
</svg>
