<svg width="36" height="29" viewBox="0 0 36 29" fill="none" xmlns="http://www.w3.org/2000/svg">
<path d="M11.5 3.40234C11.5 4.92401 12.7283 6.15234 14.25 6.15234H20.6667V25.4023C20.6667 26.924 21.895 28.1523 23.4167 28.1523C24.9383 28.1523 26.1667 26.924 26.1667 25.4023V6.15234H32.5833C34.105 6.15234 35.3333 4.92401 35.3333 3.40234C35.3333 1.88068 34.105 0.652344 32.5833 0.652344H14.25C12.7283 0.652344 11.5 1.88068 11.5 3.40234ZM3.25 15.319H6V25.4023C6 26.924 7.22833 28.1523 8.75 28.1523C10.2717 28.1523 11.5 26.924 11.5 25.4023V15.319H14.25C15.7717 15.319 17 14.0907 17 12.569C17 11.0473 15.7717 9.81901 14.25 9.81901H3.25C1.72833 9.81901 0.5 11.0473 0.5 12.569C0.5 14.0907 1.72833 15.319 3.25 15.319Z" fill="url(#paint0_linear_566_10567)"/>
<path d="M11.5 3.40234C11.5 4.92401 12.7283 6.15234 14.25 6.15234H20.6667V25.4023C20.6667 26.924 21.895 28.1523 23.4167 28.1523C24.9383 28.1523 26.1667 26.924 26.1667 25.4023V6.15234H32.5833C34.105 6.15234 35.3333 4.92401 35.3333 3.40234C35.3333 1.88068 34.105 0.652344 32.5833 0.652344H14.25C12.7283 0.652344 11.5 1.88068 11.5 3.40234ZM3.25 15.319H6V25.4023C6 26.924 7.22833 28.1523 8.75 28.1523C10.2717 28.1523 11.5 26.924 11.5 25.4023V15.319H14.25C15.7717 15.319 17 14.0907 17 12.569C17 11.0473 15.7717 9.81901 14.25 9.81901H3.25C1.72833 9.81901 0.5 11.0473 0.5 12.569C0.5 14.0907 1.72833 15.319 3.25 15.319Z" fill="white"/>
<defs>
<linearGradient id="paint0_linear_566_10567" x1="32.2809" y1="-0.147075" x2="-12.239" y2="17.3853" gradientUnits="userSpaceOnUse">
<stop stop-color="#153E9B"/>
<stop offset="1" stop-color="#0D3770"/>
</linearGradient>
</defs>
</svg>
