<svg width="20" height="20" viewBox="0 0 20 20" fill="none" xmlns="http://www.w3.org/2000/svg">
<g clip-path="url(#clip0_1163_5290)">
<path fill-rule="evenodd" clip-rule="evenodd" d="M10.0025 0C12.7606 0 15.2612 1.11718 17.0735 2.92641C18.8809 4.7307 20 7.22704 20 9.98538C20 12.7388 18.8809 15.2351 17.0735 17.0443C15.2612 18.8486 12.7606 19.9658 10.0025 19.9658C7.23942 19.9658 4.7388 18.8486 2.93142 17.0443C1.11909 15.2351 0 12.7388 0 9.98538C0 7.22704 1.11909 4.7307 2.93142 2.92641C4.7388 1.11718 7.23942 0 10.0025 0ZM15.9693 4.02875C15.3751 3.43062 14.6918 2.92641 13.944 2.53095C14.0629 2.71385 14.1768 2.90169 14.2857 3.09942C15.1721 4.70104 15.7514 6.83652 15.8554 9.20434H18.4055C18.2223 7.18749 17.3261 5.37826 15.9693 4.02875ZM15.9693 15.942C17.3261 14.5875 18.2223 12.7783 18.4055 10.7615H15.8554C15.7514 13.1293 15.1721 15.2648 14.2857 16.8664C14.1768 17.0641 14.0629 17.2569 13.944 17.4349C14.6918 17.0394 15.3751 16.5352 15.9693 15.942ZM4.03565 15.942C4.62986 16.5352 5.30824 17.0394 6.06091 17.4349C5.94206 17.2569 5.82818 17.0641 5.71924 16.8664C4.83288 15.2648 4.25353 13.1293 4.14459 10.7615H1.59941C1.78262 12.7783 2.67888 14.5875 4.03565 15.942ZM4.03565 4.02875C2.67888 5.37826 1.78262 7.18749 1.59941 9.20434H4.14459C4.25353 6.83652 4.83288 4.70104 5.71924 3.09942C5.82818 2.90169 5.94206 2.71385 6.06091 2.53095C5.30824 2.92641 4.62986 3.43062 4.03565 4.02875ZM10.7799 1.70542V9.20434H14.2956C14.1916 7.1084 13.6866 5.23491 12.919 3.8508C12.3248 2.77317 11.587 2.01191 10.7799 1.70542ZM10.7799 10.7615V18.2604C11.587 17.9539 12.3248 17.1926 12.919 16.12C13.6866 14.7309 14.1916 12.8574 14.2956 10.7615H10.7799ZM9.2201 18.2604V10.7615H5.70933C5.80837 12.8574 6.3184 14.7309 7.08591 16.12C7.68012 17.1926 8.41793 17.9539 9.2201 18.2604ZM9.2201 9.20434V1.70542C8.41793 2.01191 7.68012 2.77317 7.08591 3.8508C6.3184 5.23491 5.80837 7.1084 5.70933 9.20434H9.2201Z" fill="#5A5756"/>
</g>
<defs>
<clipPath id="clip0_1163_5290">
<rect width="20" height="20" fill="white"/>
</clipPath>
</defs>
</svg>
