<svg width="13" height="13" viewBox="0 0 13 13" fill="none" xmlns="http://www.w3.org/2000/svg">
<mask id="mask0_100_533" style="mask-type:luminance" maskUnits="userSpaceOnUse" x="0" y="0" width="13" height="13">
<path d="M0.5 1H12.5V12H0.5V1Z" fill="white" stroke="white"/>
</mask>
<g mask="url(#mask0_100_533)">
<path d="M4.98157 11.9794V10.4371C4.98157 10.0177 5.14155 9.61555 5.42633 9.31901C5.71108 9.02245 6.09734 8.85583 6.5001 8.85575C6.69953 8.85575 6.897 8.89664 7.08126 8.97614C7.26551 9.05561 7.43294 9.1721 7.57394 9.31893C7.71494 9.46577 7.8268 9.6401 7.9031 9.83197C7.9794 10.0238 8.01865 10.2294 8.01863 10.4371V11.9794" stroke="#DA4B3F" stroke-linecap="round" stroke-linejoin="round"/>
<path d="M1.70004 5.06859V10.808C1.70004 11.1187 1.81857 11.4166 2.02955 11.6363C2.24053 11.856 2.52668 11.9794 2.82506 11.9794H10.1752C10.4736 11.9794 10.7597 11.856 10.9707 11.6363C11.1817 11.4166 11.3002 11.1187 11.3002 10.808V5.06859C11.3002 4.88674 11.2596 4.70739 11.1815 4.54473C11.1033 4.38209 10.9899 4.24061 10.8502 4.1315L7.17515 1.26165C6.98042 1.10958 6.74357 1.02737 6.50014 1.02737C6.25671 1.02737 6.01985 1.10958 5.82512 1.26165L2.15005 4.1315C2.01032 4.24061 1.89692 4.38209 1.81882 4.54473C1.74069 4.70739 1.70004 4.88674 1.70004 5.06859Z" stroke="#DA4B3F" stroke-linecap="round" stroke-linejoin="round"/>
<path d="M3.30033 3.23345L0.500031 5.49679" stroke="#DA4B3F" stroke-linecap="round" stroke-linejoin="round"/>
<path d="M10.0999 3.54582L12.5 5.42" stroke="#DA4B3F" stroke-linecap="round" stroke-linejoin="round"/>
<path d="M0.500031 5.49627L5.82013 1.26191C6.01576 1.10625 6.25492 1.02147 6.50115 1.02048C6.74735 1.01952 6.98713 1.10237 7.18391 1.25645L12.5003 5.41974" stroke="#DA4B3F" stroke-linecap="round" stroke-linejoin="round"/>
</g>
</svg>
