<svg width="58" height="52" viewBox="0 0 58 52" fill="none" xmlns="http://www.w3.org/2000/svg">
<mask id="mask0_100_563" style="mask-type:luminance" maskUnits="userSpaceOnUse" x="0" y="0" width="58" height="52">
<path d="M57.4364 0.84375H0.5625V51.2656H57.4364V0.84375Z" fill="white"/>
</mask>
<g mask="url(#mask0_100_563)">
<path d="M22.3566 49.0781V42.5977C22.3566 40.8356 23.0565 39.1457 24.3023 37.8997C25.5481 36.6536 27.238 35.9535 29 35.9531C29.8725 35.9531 30.7364 36.125 31.5425 36.459C32.3486 36.7929 33.0811 37.2824 33.698 37.8993C34.3149 38.5163 34.8042 39.2488 35.138 40.055C35.4718 40.8611 35.6436 41.7252 35.6434 42.5977V49.0781" stroke="#BE594F" stroke-width="4" stroke-linecap="round" stroke-linejoin="round"/>
<path d="M8 20.0402V44.1562C8 45.4616 8.51855 46.7135 9.44156 47.6366C10.3646 48.5596 11.6165 49.0781 12.9219 49.0781H45.0781C46.3835 49.0781 47.6354 48.5596 48.5584 47.6366C49.4815 46.7135 50 45.4616 50 44.1562V20.0402C50 19.2761 49.822 18.5225 49.4804 17.839C49.1387 17.1556 48.6425 16.5612 48.0313 16.1027L31.9531 4.04406C31.1012 3.40509 30.065 3.05969 29 3.05969C27.935 3.05969 26.8988 3.40509 26.0469 4.04406L9.96875 16.1027C9.35745 16.5612 8.86133 17.1556 8.51964 17.839C8.17784 18.5225 8 19.2761 8 20.0402Z" stroke="black" stroke-width="4" stroke-linecap="round" stroke-linejoin="round"/>
<path d="M15.0011 12.3292L2.75 21.8394" stroke="black" stroke-width="4" stroke-linecap="round" stroke-linejoin="round"/>
<path d="M44.7489 13.6417L55.2489 21.5167" stroke="black" stroke-width="4" stroke-linecap="round" stroke-linejoin="round"/>
<path d="M2.75 21.8372L26.025 4.04516C26.8809 3.39109 27.9271 3.03486 29.0044 3.0307C30.0815 3.02666 31.1305 3.3748 31.9914 4.02219L55.25 21.5156" stroke="#BE594F" stroke-width="4" stroke-linecap="round" stroke-linejoin="round"/>
</g>
</svg>
