<svg width="51" height="51" viewBox="0 0 51 51" fill="none" xmlns="http://www.w3.org/2000/svg">
<path opacity="0.2" d="M42.7429 0.780029H8.74292C4.60078 0.780029 1.24292 4.13789 1.24292 8.28003V42.28C1.24292 46.4222 4.60078 49.78 8.74292 49.78H42.7429C46.8851 49.78 50.2429 46.4222 50.2429 42.28V8.28003C50.2429 4.13789 46.8851 0.780029 42.7429 0.780029Z" stroke="white"/>
<path d="M38.7169 20.63C38.6589 19.302 38.4439 18.388 38.1359 17.597C37.8189 16.757 37.3299 16.005 36.6909 15.38C36.0649 14.745 35.3079 14.252 34.4779 13.939C33.6819 13.632 32.7739 13.417 31.4449 13.358C30.1069 13.295 29.6819 13.28 26.2879 13.28C22.8939 13.28 22.4689 13.295 21.1359 13.353C19.8069 13.412 18.8939 13.627 18.1029 13.934C17.2629 14.252 16.5109 14.74 15.8859 15.38C15.2509 16.005 14.7579 16.762 14.4449 17.592C14.1369 18.388 13.9229 19.297 13.8639 20.625C13.7999 21.963 13.7859 22.388 13.7859 25.782C13.7859 29.177 13.7999 29.602 13.8589 30.935C13.9179 32.263 14.1329 33.176 14.4399 33.968C14.7579 34.808 15.2509 35.56 15.8859 36.185C16.5109 36.82 17.2679 37.313 18.0979 37.626C18.8939 37.933 19.8019 38.148 21.1309 38.207C22.4639 38.265 22.8889 38.28 26.2829 38.28C29.6779 38.28 30.1019 38.265 31.4359 38.207C32.7639 38.148 33.6769 37.933 34.4679 37.626C36.1489 36.976 37.4769 35.648 38.1269 33.968C38.4339 33.172 38.6489 32.263 38.7079 30.935C38.7659 29.602 38.7809 29.177 38.7809 25.782C38.7809 22.388 38.7759 21.963 38.7169 20.63ZM36.4659 30.837C36.4119 32.058 36.2069 32.717 36.0359 33.157C35.6159 34.246 34.7519 35.11 33.6629 35.531C33.2229 35.701 32.5589 35.907 31.3429 35.96C30.0239 36.019 29.6289 36.033 26.2929 36.033C22.9569 36.033 22.5569 36.019 21.2429 35.96C20.0219 35.907 19.3629 35.701 18.9229 35.531C18.3809 35.33 17.8879 35.013 17.4879 34.598C17.0729 34.192 16.7549 33.704 16.5549 33.162C16.3839 32.722 16.1789 32.058 16.1249 30.842C16.0659 29.523 16.0519 29.128 16.0519 25.792C16.0519 22.457 16.0659 22.056 16.1249 20.742C16.1789 19.521 16.3839 18.862 16.5549 18.423C16.7549 17.88 17.0729 17.387 17.4929 16.987C17.8979 16.572 18.3859 16.254 18.9279 16.054C19.3679 15.883 20.0319 15.678 21.2479 15.624C22.5669 15.566 22.9619 15.551 26.2979 15.551C29.6379 15.551 30.0339 15.566 31.3479 15.624C32.5689 15.678 33.2279 15.883 33.6679 16.054C34.2099 16.254 34.7029 16.572 35.1029 16.987C35.5179 17.392 35.8359 17.88 36.0359 18.423C36.2069 18.862 36.4119 19.526 36.4659 20.742C36.5249 22.061 36.5389 22.457 36.5389 25.792C36.5389 29.128 36.5249 29.519 36.4659 30.837Z" fill="white"/>
<path d="M26.2889 19.36C22.7439 19.36 19.8669 22.237 19.8669 25.782C19.8669 29.328 22.7439 32.204 26.2889 32.204C29.8349 32.204 32.7109 29.328 32.7109 25.782C32.7109 22.237 29.8349 19.36 26.2889 19.36ZM26.2889 29.948C23.9889 29.948 22.123 28.083 22.123 25.782C22.123 23.482 23.9889 21.616 26.2889 21.616C28.5899 21.616 30.455 23.482 30.455 25.782C30.455 28.083 28.5899 29.948 26.2889 29.948Z" fill="white"/>
<path d="M34.4639 19.106C34.4639 19.934 33.7919 20.606 32.9639 20.606C32.1359 20.606 31.4648 19.934 31.4648 19.106C31.4648 18.278 32.1359 17.6071 32.9639 17.6071C33.7919 17.6071 34.4639 18.278 34.4639 19.106Z" fill="white"/>
</svg>
