<svg width="26" height="26" viewBox="0 0 26 26" fill="none" xmlns="http://www.w3.org/2000/svg">
<rect x="-0.000976562" width="26" height="26" rx="13" fill="url(#paint0_linear_427_16265)"/>
<rect x="-0.000976562" width="26" height="26" rx="13" fill="url(#paint1_linear_427_16265)"/>
<path d="M8.49905 8H13.7993C13.9319 8 14.0591 8.05268 14.1528 8.14645C14.2466 8.24023 14.2993 8.36741 14.2993 8.50002C14.2993 8.63264 14.2466 8.75982 14.1528 8.85359C14.0591 8.94736 13.9319 9.00004 13.7993 9.00004H9.70577L17.8528 17.1471C17.9464 17.2408 17.999 17.3679 17.999 17.5004C17.999 17.6329 17.9464 17.76 17.8528 17.8538C17.759 17.9474 17.6319 18 17.4994 18C17.3669 18 17.2398 17.9474 17.1461 17.8538L8.99907 9.70674V13.8003C8.99907 13.9329 8.94639 14.0601 8.85261 14.1538C8.75884 14.2476 8.63166 14.3003 8.49905 14.3003C8.36643 14.3003 8.23925 14.2476 8.14548 14.1538C8.0517 14.0601 7.99902 13.9329 7.99902 13.8003V8.50002C7.99902 8.36741 8.0517 8.24023 8.14548 8.14645C8.23925 8.05268 8.36643 8 8.49905 8V8Z" fill="white"/>
<defs>
<linearGradient id="paint0_linear_427_16265" x1="23.7207" y1="-0.755814" x2="-11.2799" y2="10.1259" gradientUnits="userSpaceOnUse">
<stop stop-color="#153E9B"/>
<stop offset="1" stop-color="#0D3770"/>
</linearGradient>
<linearGradient id="paint1_linear_427_16265" x1="23.7207" y1="-0.755814" x2="-11.2799" y2="10.1259" gradientUnits="userSpaceOnUse">
<stop stop-color="#BE594F"/>
<stop offset="1" stop-color="#911005"/>
</linearGradient>
</defs>
</svg>
