<svg width="51" height="51" viewBox="0 0 51 51" fill="none" xmlns="http://www.w3.org/2000/svg">
<path opacity="0.2" d="M42.7429 0.780029H8.74292C4.60078 0.780029 1.24292 4.13789 1.24292 8.28003V42.28C1.24292 46.4222 4.60078 49.78 8.74292 49.78H42.7429C46.8851 49.78 50.2429 46.4222 50.2429 42.28V8.28003C50.2429 4.13789 46.8851 0.780029 42.7429 0.780029Z" stroke="white"/>
<path d="M29.6528 25.403L37.7438 30.518V20.072L29.6528 25.403Z" fill="white"/>
<path d="M13.7429 20.072V30.518L21.8339 25.403L13.7429 20.072Z" fill="white"/>
<path d="M36.2409 17.03H15.2409C14.4919 17.03 13.8979 17.588 13.7859 18.306L25.7409 26.183L37.6959 18.306C37.5829 17.588 36.9889 17.03 36.2409 17.03Z" fill="white"/>
<path d="M28.2768 26.3091L26.1538 27.7071C26.0278 27.7891 25.8858 27.8301 25.7418 27.8301C25.5978 27.8301 25.4548 27.7891 25.3288 27.7071L23.2068 26.3071L13.7898 32.2641C13.9048 32.9761 14.4958 33.5301 15.2418 33.5301H36.2418C36.9868 33.5301 37.5778 32.9761 37.6938 32.2641L28.2768 26.3091Z" fill="white"/>
</svg>
