<svg width="60" height="60" viewBox="0 0 60 60" fill="none" xmlns="http://www.w3.org/2000/svg">
<rect width="60" height="60" rx="30" fill="url(#paint0_linear_672_7384)"/>
<rect width="60" height="60" rx="30" fill="url(#paint1_linear_672_7384)"/>
<path d="M18.375 16.5C16.9388 16.5 15.75 17.6888 15.75 19.125V31.875C15.75 33.3112 16.9388 34.5 18.375 34.5H41.625C43.0612 34.5 44.25 33.3112 44.25 31.875V19.125C44.25 17.6888 43.0612 16.5 41.625 16.5H18.375ZM20.25 18.75H39.75C39.75 19.995 40.755 21 42 21V30C40.755 30 39.75 31.005 39.75 32.25H20.25C20.25 31.005 19.245 30 18 30V21C19.245 21 20.25 19.995 20.25 18.75ZM30 20.25C28.5312 20.25 27.2964 20.9881 26.5591 22.002C25.8217 23.0158 25.5 24.2642 25.5 25.5C25.5 26.7358 25.8217 27.9842 26.5591 28.998C27.2964 30.0119 28.5312 30.75 30 30.75C31.4688 30.75 32.7036 30.0119 33.4409 28.998C34.1783 27.9842 34.5 26.7358 34.5 25.5C34.5 24.2642 34.1783 23.0158 33.4409 22.002C32.7036 20.9881 31.4688 20.25 30 20.25ZM30 22.5C30.7812 22.5 31.2339 22.7932 31.6216 23.3262C32.0092 23.8592 32.25 24.6733 32.25 25.5C32.25 26.3267 32.0092 27.1408 31.6216 27.6738C31.2339 28.2068 30.7812 28.5 30 28.5C29.2188 28.5 28.7661 28.2068 28.3784 27.6738C27.9908 27.1408 27.75 26.3267 27.75 25.5C27.75 24.6733 27.9908 23.8592 28.3784 23.3262C28.7661 22.7932 29.2188 22.5 30 22.5ZM21 24C20.6022 24 20.2206 24.158 19.9393 24.4393C19.658 24.7206 19.5 25.1022 19.5 25.5C19.5 25.8978 19.658 26.2794 19.9393 26.5607C20.2206 26.842 20.6022 27 21 27C21.3978 27 21.7794 26.842 22.0607 26.5607C22.342 26.2794 22.5 25.8978 22.5 25.5C22.5 25.1022 22.342 24.7206 22.0607 24.4393C21.7794 24.158 21.3978 24 21 24ZM39 24C38.6022 24 38.2206 24.158 37.9393 24.4393C37.658 24.7206 37.5 25.1022 37.5 25.5C37.5 25.8978 37.658 26.2794 37.9393 26.5607C38.2206 26.842 38.6022 27 39 27C39.3978 27 39.7794 26.842 40.0607 26.5607C40.342 26.2794 40.5 25.8978 40.5 25.5C40.5 25.1022 40.342 24.7206 40.0607 24.4393C39.7794 24.158 39.3978 24 39 24ZM18.0337 35.9985C18.1994 37.2398 19.2251 38.2035 20.5181 38.2485C28.6743 38.5305 34.7118 41.248 37.9556 42.7075C38.5331 42.9678 39.0299 43.1899 39.4409 43.3579C39.6682 43.4509 39.9063 43.4971 40.144 43.4971C40.507 43.4971 40.8663 43.3899 41.1768 43.1821C41.692 42.8364 42 42.2578 42 41.6353V36H39.75V39C38.8985 39 38.1679 39.475 37.7856 40.1704C34.2234 38.5977 28.3571 36.2681 20.5957 36C20.5942 36 20.5935 35.9985 20.5928 35.9985H18.0337Z" fill="white"/>
<defs>
<linearGradient id="paint0_linear_672_7384" x1="54.7423" y1="-1.74419" x2="-26.0283" y2="23.3675" gradientUnits="userSpaceOnUse">
<stop stop-color="#153E9B"/>
<stop offset="1" stop-color="#0D3770"/>
</linearGradient>
<linearGradient id="paint1_linear_672_7384" x1="54.7423" y1="-1.74419" x2="-26.0283" y2="23.3675" gradientUnits="userSpaceOnUse">
<stop stop-color="#BE594F"/>
<stop offset="1" stop-color="#911005"/>
</linearGradient>
</defs>
</svg>
