<svg width="51" height="51" viewBox="0 0 51 51" fill="none" xmlns="http://www.w3.org/2000/svg">
<path opacity="0.2" d="M42.7429 0.780029H8.74292C4.60078 0.780029 1.24292 4.13789 1.24292 8.28003V42.28C1.24292 46.4222 4.60078 49.78 8.74292 49.78H42.7429C46.8851 49.78 50.2429 46.4222 50.2429 42.28V8.28003C50.2429 4.13789 46.8851 0.780029 42.7429 0.780029Z" stroke="white"/>
<path d="M36.1688 30.692L33.2378 27.761C32.1918 26.715 30.4118 27.133 29.9938 28.494C29.6798 29.436 28.6328 29.959 27.6908 29.75C25.5978 29.227 22.7718 26.505 22.2488 24.307C21.9348 23.365 22.5628 22.319 23.5038 22.005C24.8648 21.586 25.2838 19.807 24.2368 18.76L21.3068 15.829C20.4688 15.097 19.2128 15.097 18.4808 15.829L16.4918 17.818C14.5028 19.911 16.7008 25.459 21.6208 30.378C26.5398 35.297 32.0868 37.6 34.1798 35.506L36.1688 33.518C36.9018 32.681 36.9018 31.425 36.1688 30.692Z" fill="white"/>
</svg>
