<svg width="90" height="90" viewBox="0 0 90 90" fill="none" xmlns="http://www.w3.org/2000/svg">
<g clip-path="url(#clip0_425_2718)">
<path d="M42.6868 0H47.4486C48.0496 0.193823 48.6878 0.115693 49.3022 0.229883C56.9945 0.878965 64.4564 3.70668 70.8084 8.11202C73.0279 9.74825 75.2013 11.4671 77.1218 13.4579C81.1428 17.5658 84.3769 22.4504 86.6008 27.7723C88.4053 32.1716 89.5299 36.8624 89.8646 41.6134C89.8795 41.8763 89.9286 42.1347 90 42.3886V47.4641C89.7441 48.9726 89.7218 50.5142 89.4317 52.0197C87.8712 62.1766 82.6274 71.6785 74.996 78.4608C67.5774 85.1274 57.9064 89.1977 47.9931 89.7912C47.3757 89.8723 46.7405 89.8182 46.1365 90H44.0256C42.2881 89.6995 40.5045 89.7912 38.7684 89.4531C30.6655 88.3653 22.9106 84.9245 16.5645 79.7334C14.6752 78.1528 12.8231 76.503 11.2522 74.5918C4.8957 67.3918 0.907438 58.0583 0.238017 48.4242C0.0877686 47.6219 0.229091 46.7895 0 45.9992V43.9828C0.197851 43.1429 0.0922314 42.273 0.235041 41.427C0.522149 37.181 1.51438 32.9965 2.99603 29.0179C5.09504 23.4556 8.3395 18.3486 12.3992 14.0394C12.8588 13.4474 13.4226 12.9561 13.979 12.4633C21.2013 5.53072 30.7696 1.11786 40.7008 0.231386C41.3569 0.100668 42.0426 0.207346 42.6868 0ZM42.3268 1.47846C32.3569 2.03439 22.6131 6.17679 15.294 13.0477C14.165 14.0093 13.1757 15.1167 12.1909 16.2225C6.18099 23.0229 2.33107 31.775 1.52331 40.8666C1.2719 42.9115 1.42364 44.9745 1.37752 47.0284C1.69141 55.1104 4.40926 63.0511 8.96281 69.6922C12.6253 75.0366 17.4883 79.5306 23.0698 82.7624C28.7256 86.0514 35.1223 88.0377 41.635 88.5005C43.2714 88.6703 44.9197 88.5846 46.5635 88.5997C56.4516 88.2721 66.1864 84.4122 73.6438 77.8417C77.998 74.0359 81.5995 69.3511 84.1582 64.1374C86.5978 59.1356 88.084 53.6544 88.4574 48.0891C88.5109 46.4349 88.6835 44.7746 88.5035 43.1219C88.1628 32.5923 83.6955 22.2957 76.3944 14.7922C71.2904 9.42821 64.7866 5.4601 57.7458 3.29649C52.7653 1.77896 47.5185 1.15693 42.3268 1.47846Z" fill="#C09300"/>
<path d="M42.3269 1.47846C47.5186 1.15693 52.7654 1.77897 57.7459 3.2965C64.7867 5.46011 71.2905 9.42822 76.3945 14.7922C83.6956 22.2957 88.1629 32.5924 88.5036 43.1219C88.6836 44.7747 88.511 46.4349 88.4574 48.0892C88.0841 53.6545 86.5979 59.1356 84.1583 64.1375C81.5996 69.3512 77.9981 74.036 73.6439 77.8418C66.1865 84.4123 56.4517 88.2722 46.5636 88.5998C44.9198 88.5847 43.2715 88.6704 41.6351 88.5006C35.1224 88.0378 28.7257 86.0515 23.0699 82.7625C17.4884 79.5306 12.6254 75.0366 8.96293 69.6922C4.40938 63.0512 1.69153 55.1104 1.37764 47.0284C1.42376 44.9745 1.27202 42.9116 1.52343 40.8667C2.3312 31.775 6.18111 23.0229 12.191 16.2226C13.1758 15.1167 14.1651 14.0094 15.2942 13.0478C22.6132 6.1768 32.357 2.03439 42.3269 1.47846Z" fill="#002768"/>
<path d="M52.5018 4.92823C52.8737 4.91772 53.2456 4.91772 53.619 4.93124C53.625 5.15511 53.7261 5.391 53.6384 5.60736C53.3736 5.81471 52.9987 6.00102 52.6685 5.84176C52.4914 5.70803 52.3442 5.54125 52.1895 5.38199C52.2921 5.23024 52.3962 5.07999 52.5018 4.92823Z" fill="#C09300"/>
<path d="M36.8538 6.04009C37.3714 5.96496 37.8936 5.93641 38.4157 5.96947C38.7356 6.99117 38.9974 8.03842 39.1253 9.10369C38.6835 9.2269 38.2372 9.32907 37.7805 9.37715C37.4473 8.27281 37.1513 7.15494 36.8538 6.04009Z" fill="#C09300"/>
<path d="M40.872 6.30002C41.83 6.12573 42.8088 6.16329 43.7787 6.10619C45.1339 6.11521 46.5115 6.00402 47.8473 6.30302C47.8711 6.72372 47.8414 7.14593 47.8191 7.56513C48.3814 7.1294 48.8544 6.54042 49.5521 6.31655C50.2454 6.04459 51.0085 6.08816 51.724 6.23541C51.3982 7.18349 51.1558 8.23675 50.4819 9.00002C49.5387 8.96095 48.6045 8.76863 47.6614 8.72205C45.488 8.63791 43.3042 8.62439 41.1457 8.92189C40.8095 9.29301 40.625 9.84593 40.1177 10.0262C39.6581 10.1494 39.1746 10.0698 38.709 10.0262C38.9946 9.67314 39.3725 9.4102 39.6625 9.06162C39.6596 8.23675 39.2594 7.47197 39.1538 6.65761C39.6075 6.51187 40.0746 6.39167 40.5551 6.4112C40.6875 6.83791 40.8139 7.26763 41.0163 7.6673C41.0445 7.20603 40.9523 6.75227 40.872 6.30002ZM42.373 7.0092C42.3715 7.1895 42.37 7.3698 42.37 7.5501C43.6285 7.54559 44.887 7.44943 46.1455 7.54409C46.1381 7.37581 46.1321 7.20603 46.1262 7.03624C44.8885 6.85144 43.6121 6.83641 42.373 7.0092ZM49.3855 7.28416C49.6354 7.47047 49.927 7.56062 50.2379 7.50803C50.2052 7.37281 50.1397 7.10085 50.107 6.96563C49.8645 7.06629 49.622 7.17147 49.3855 7.28416Z" fill="#C09300"/>
<path d="M35.027 6.39618C35.4971 6.29401 35.9775 6.12873 36.464 6.21438C36.8984 7.21955 37.0888 8.32389 37.3417 9.38767C35.4271 9.82189 33.4962 10.2231 31.6472 10.8977C31.5743 11.9554 30.7903 12.863 29.7653 13.0898C29.8472 12.588 30.222 12.0937 30.0123 11.5768C29.6344 10.7294 28.9338 10.0788 28.5544 9.2299C29.032 8.99401 29.5244 8.79117 30.0301 8.6274C30.35 9.01354 30.5523 9.53491 30.9956 9.79334C31.3868 9.77832 31.7319 9.56947 32.0771 9.40419C31.671 8.991 31.186 8.67247 30.7561 8.28783C31.6472 7.75294 32.6766 7.50653 33.6956 7.37882C33.703 7.94676 33.6985 8.51471 33.7179 9.08266C34.3323 8.98049 35.018 8.91438 35.5119 8.49969C35.4108 7.78449 35.1266 7.11137 35.027 6.39618Z" fill="#C09300"/>
<path d="M53.4868 6.57948C54.1666 6.27898 54.9223 6.27898 55.6468 6.36763C55.4266 7.02873 54.9074 7.53207 54.7215 8.2082C55.5248 8.14359 55.6899 7.24359 56.1407 6.72523C56.5483 6.89501 56.9499 7.07381 57.3516 7.26012C56.8339 8.19918 56.2716 9.12172 55.6259 9.97665C54.9759 9.96913 54.3719 9.7062 53.7441 9.56947C52.853 9.3471 51.9397 9.2269 51.0486 9.00302C51.7403 8.09251 52.3577 6.98516 53.4868 6.57948ZM53.3321 7.48099C53.3246 7.56963 53.3097 7.74843 53.3023 7.83708C53.4912 7.83558 53.6802 7.83407 53.8691 7.83107C53.8631 7.74543 53.8497 7.57414 53.8438 7.4885C53.6727 7.48549 53.5016 7.48249 53.3321 7.48099Z" fill="#C09300"/>
<path d="M57.8633 7.42539C58.2962 7.5486 58.7217 7.71538 59.0921 7.97982C58.4598 8.8062 57.9064 9.70019 57.2028 10.468C56.6122 11.1516 55.6155 11.081 54.8196 10.9142C55.1796 10.3988 55.9175 10.3523 56.2209 9.78282C56.7401 8.97748 57.2519 8.16312 57.8633 7.42539Z" fill="#C09300"/>
<path d="M60.1453 8.42907C60.7418 8.48466 61.3383 8.42155 61.92 8.28032C61.6448 9.04359 60.9471 9.5259 60.6391 10.2681C61.0378 10.193 61.4157 10.0428 61.8084 9.94509C62.1639 9.91354 62.5076 10.0413 62.8587 10.0833C62.5477 9.74526 62.2175 9.42523 61.9259 9.07064C62.3737 8.90386 62.8229 9.12172 63.2231 9.31554C63.6367 9.51688 64.0398 9.79935 64.2421 10.2306C64.5129 10.6828 64.2079 11.1922 64.1558 11.664C64.8416 11.679 65.6315 11.6444 66.1507 12.1838C66.5018 12.4543 66.5717 12.8975 66.6892 13.2957C67.2084 13.6833 67.6949 14.2002 68.3524 14.3219C68.2914 13.5932 67.7306 13.1049 67.4122 12.4933C68.1367 12.6766 68.8611 13.0433 69.2777 13.6938C69.5767 14.1942 69.2583 14.7501 69.0441 15.2144C68.8091 15.6276 68.8909 16.1159 68.8641 16.5696C67.7082 16.0738 66.8975 15.0206 65.7803 14.4451C65.3801 14.4105 64.9978 14.6074 64.5977 14.6044C63.8821 14.6299 63.1324 14.2257 62.8304 13.5571C62.7471 13.2626 62.7932 12.9516 62.7382 12.6526C61.9616 12.1883 61.1687 11.688 60.3059 11.4236C59.7585 11.6579 59.2765 12.0862 58.6621 12.1327C57.9957 12.1463 57.2563 12.002 56.8101 11.4566C57.3307 11.389 57.8886 11.4371 58.3646 11.1741C58.3334 10.77 57.8588 10.6723 57.6238 10.4064C57.7443 9.99468 58.1072 9.71671 58.3527 9.37715C58.7737 8.82122 59.4253 8.37498 60.1453 8.42907ZM59.2453 9.46129C59.2601 9.62206 59.2765 9.78282 59.2944 9.94209C59.6306 9.94209 59.9668 9.89401 60.0084 9.49284C59.754 9.47932 59.4996 9.4688 59.2453 9.46129ZM64.3834 12.8419C64.3448 12.9621 64.2644 13.204 64.2243 13.3242C64.5783 13.473 64.9339 13.4534 65.1644 13.1094C64.9205 12.9741 64.6527 12.902 64.3834 12.8419Z" fill="#C09300"/>
<path d="M26.6609 10.16C27.0313 9.92406 27.4181 9.67014 27.8569 9.59651C28.0443 9.55745 28.1529 9.7693 28.2734 9.87598C28.7123 10.4409 29.1214 11.0374 29.4635 11.6685C29.0113 12.0681 28.4222 12.2635 27.9045 12.561C26.2607 13.3708 24.666 14.2753 23.1189 15.2564C22.6607 15.5675 22.2308 15.9251 21.7265 16.1579C21.6789 15.7162 21.783 15.2369 21.5703 14.8267C21.2951 14.2723 21.0898 13.6022 21.3323 12.9997C21.5807 12.5339 21.9482 12.1342 22.3647 11.8172C22.9835 12.1883 23.4313 12.7818 24.0025 13.2191C24.367 13.0147 24.7434 12.8254 25.0691 12.5579C24.7538 12.1327 24.3581 11.7691 24.1215 11.2883C24.5143 11.0419 24.9263 10.8286 25.3488 10.6393C25.7073 10.9878 26.0153 11.395 26.4139 11.7C26.8141 11.8473 27.1072 11.4491 27.3972 11.2418C27.1369 10.8932 26.8409 10.5626 26.6609 10.16ZM22.4167 13.4234C22.3974 13.5571 22.3558 13.8276 22.3349 13.9613C22.6042 13.8892 22.8824 13.8246 23.1174 13.6638C22.8853 13.5751 22.6518 13.497 22.4167 13.4234Z" fill="#C09300"/>
<path d="M19.7598 12.4543C20.0439 12.3972 20.4575 12.4182 20.5661 12.7488C20.8115 13.0403 20.4233 13.2671 20.1897 13.3738C19.858 13.5496 19.4906 13.2506 19.2942 12.9952C19.3239 12.7428 19.5039 12.5024 19.7598 12.4543Z" fill="#C09300"/>
<path d="M26.7441 13.494C27.1279 13.3618 27.4165 13.7359 27.7051 13.9222C27.4106 14.3309 26.9509 14.5187 26.463 14.3895C26.3752 14.6464 26.3856 15.0416 26.0405 15.0807C25.6374 15.3075 25.2952 14.9304 25.0527 14.6494C25.3056 14.2483 25.7296 14.0514 26.1952 14.1521C26.28 13.8666 26.4213 13.5556 26.7441 13.494Z" fill="#C09300"/>
<path d="M58.5727 13.6232C59.2495 13.3528 59.7955 14.1025 59.9651 14.702C60.0424 15.3015 59.8476 15.913 59.5322 16.4194C58.4879 17.9054 57.3053 19.2847 56.1925 20.718C54.394 22.8561 52.7324 25.1159 50.7866 27.1247C49.8925 28.0803 49 29.0494 48.2919 30.1583C47.6344 31.1319 47.0363 32.2137 46.9932 33.4202C46.8906 34.6387 47.371 35.7867 47.5748 36.9676C47.9482 38.3605 47.9482 39.8119 48.0256 41.2423C48.0107 42.563 47.7221 43.9408 46.9426 45.0271C46.4562 45.7152 45.7094 46.181 44.918 46.4229C44.3661 46.4905 43.8038 46.486 43.2519 46.4304C42.0886 46.1059 41.0874 45.3666 40.2038 44.5583C39.2056 43.6237 38.6537 42.3346 38.1271 41.095C37.6496 39.7923 37.2836 38.4341 37.2226 37.0413C37.1854 35.8152 37.1854 34.5892 37.1259 33.3646C37.1512 32.8463 36.6291 32.5863 36.3583 32.2182C34.6178 30.1583 32.8193 28.1389 31.3035 25.8987C30.5359 24.9852 30.0494 23.8838 29.6612 22.7615C29.1702 21.3837 28.5395 19.9623 28.6838 18.4658C28.8891 18.0902 29.2312 17.8017 29.5764 17.5598C30.094 17.5252 30.3871 18.1533 30.5299 18.58C30.9717 20.6985 31.1993 22.8832 31.9892 24.9115C32.3894 25.9723 33.2552 26.7281 33.9618 27.5755C35.1965 29.0314 36.4446 30.4753 37.7002 31.9132C37.9828 32.2738 38.3264 32.5983 38.5302 33.0145C38.6522 35.3855 38.3175 37.8075 38.9185 40.1334C39.283 41.2393 39.5641 42.4503 40.4016 43.3082C41.0071 43.9377 41.803 44.3765 42.636 44.6109C43.3025 44.6454 43.9749 44.6499 44.6413 44.6079C45.4595 44.3524 46.2137 43.7559 46.4978 42.9175C46.9694 41.8357 46.8965 40.6277 46.8281 39.4768C46.3922 37.2787 45.699 35.0865 45.812 32.8192C45.8373 32.2017 46.0099 31.5766 46.3461 31.0583C49.0074 27.598 51.9067 24.3316 54.5517 20.8578C55.181 20.0149 55.8177 19.1569 56.2297 18.1803C56.6938 17.1165 57.2056 16.0753 57.6682 15.013C57.8884 14.5022 58.1443 13.9883 58.5727 13.6232Z" fill="#C09300"/>
<path d="M18.9 16.2541C19.5738 15.7493 20.3162 15.3466 21.0555 14.9499C20.4099 17.2653 20.1391 19.6903 19.1692 21.908C19.858 21.1808 19.9636 20.1366 20.4262 19.2817C20.8814 19.2486 21.3367 19.2711 21.7919 19.2741C21.6877 20.0149 21.475 20.7782 20.9648 21.3431C20.5572 21.7833 20.1228 22.2025 19.6453 22.5661C18.9639 23.0379 18.1309 23.1777 17.3543 23.4135C17.0345 23.4797 16.9572 23.8523 16.795 24.0912C17.46 23.959 18.0743 23.66 18.7214 23.4691C19.3834 23.2933 19.971 22.763 20.6925 22.9027C21.2504 23.1746 21.0659 24.2685 20.4143 24.2264C19.9814 24.3045 19.6572 23.9544 19.2614 23.8688C18.2722 24.1227 17.3454 24.5795 16.4588 25.0798C16.5525 26.2398 15.9396 27.2585 15.6942 28.3538C16.2833 27.6251 16.4514 26.6845 16.7608 25.8251C17.097 25.1534 17.9717 25.484 18.5593 25.4209C18.3391 26.9279 17.3648 28.2531 16.0854 29.0299C15.1274 29.5994 14.0891 30.0336 13.0076 30.2995C12.9302 30.6451 12.8633 30.9937 12.8186 31.3453C13.8064 30.7187 14.8046 30.1087 15.7968 29.4912C16.2193 29.2478 16.7831 29.7391 16.6507 30.1959C16.4662 30.4317 16.2267 30.612 16.0006 30.8059C15.6719 30.6917 15.3223 30.3386 14.9652 30.558C14.2542 30.9276 13.5862 31.4039 13.0418 31.9989C12.8469 33.0807 12.7591 34.191 12.7309 35.2924C13.1414 34.466 13.1608 33.5329 13.2768 32.6374C13.5491 32.1161 14.22 32.2618 14.6975 32.2333C14.7198 32.9334 14.5993 33.6396 14.3018 34.2767C13.8109 35.5448 12.6342 36.3111 11.7223 37.2441C11.4099 37.5266 11.5795 37.9984 11.5363 38.368C12.5881 37.4244 13.4152 36.2645 14.2824 35.1586C14.9831 34.5381 15.7834 35.8453 15.1259 36.3336C14.7317 36.3952 14.3286 36.3366 13.9329 36.3952C13.3393 37.1464 12.661 37.8571 12.2623 38.7421C12.0555 39.2034 12.2876 39.6932 12.3917 40.15C12.6267 41.0034 12.5925 41.9274 12.9659 42.7418C13.1028 41.8598 12.9704 40.9643 12.771 40.1034C12.7219 39.8209 12.661 39.5069 12.7889 39.2379C13.07 38.8488 13.5595 38.7151 13.9938 38.5813C14.4446 39.8795 14.4029 41.3339 13.9462 42.6246C13.5178 43.7319 12.8172 44.7356 11.932 45.5214C12.0064 45.849 12.0912 46.175 12.2072 46.4905C13.0091 45.7859 13.3274 44.7131 13.9805 43.8867C14.3613 43.3398 14.5428 42.6381 15.1095 42.2384C15.6614 42.0461 16.0482 42.563 16.1672 43.0453C16.0408 43.759 15.2687 43.9258 14.6603 43.8581C13.9656 44.8558 13.2619 45.8985 12.9763 47.1005C13.0477 47.3154 13.1816 47.5002 13.2902 47.697C13.8763 48.6812 14.0667 49.8366 14.5502 50.8673C14.7614 49.6217 14.1694 48.4618 13.6606 47.3725C14.0236 46.8511 14.5472 46.4695 14.9995 46.0293C16.1211 47.6024 16.1003 49.745 15.4264 51.4969C15.114 52.4134 14.4253 53.1166 13.9522 53.9415C13.7216 54.5319 14.3375 54.9391 14.6067 55.3854C15.2181 54.5289 15.361 53.4546 15.8236 52.5231C16.194 51.8424 16.0899 50.9334 16.7043 50.3925C17.1014 49.9869 17.8616 50.3369 17.8586 50.8823C17.8646 51.1934 17.9181 51.5855 17.6162 51.7808C17.2695 52.0002 16.8486 52.0408 16.4603 52.1399C16.2238 53.2894 15.6733 54.3516 15.4948 55.5161C15.4145 55.8602 15.7284 56.0885 15.898 56.344C16.6938 57.3356 17.2383 58.5121 18.058 59.4842C17.9434 58.8111 17.6608 58.18 17.3648 57.57C17.0657 56.9585 16.5287 56.4912 16.2892 55.8481C16.5927 55.3463 16.9601 54.888 17.2948 54.4102C18.3287 55.1104 18.8732 56.3575 18.9758 57.5805C19.0681 58.7149 19.1662 59.9019 18.7259 60.9807C18.5266 61.6523 18.0119 62.2743 18.1398 63.0091C18.3376 63.5304 18.8524 63.7784 19.3031 64.0293C19.3507 62.1632 19.2793 60.294 19.3254 58.4294C19.5456 58.1034 19.9532 57.851 20.3533 57.9847C20.7624 58.2702 21.0614 58.8486 20.8086 59.3324C20.6062 59.693 20.1853 59.8343 19.8416 60.0221C19.8372 61.3879 19.8178 62.8017 20.2091 64.1194C21.3634 64.5777 22.3452 65.3635 23.3211 66.1178C23.5502 66.2981 23.8061 66.4378 24.0738 66.555C23.7391 65.9239 23.2006 65.4356 22.6547 64.9939C22.1757 64.6032 21.5553 64.3899 21.1522 63.9121C21.0957 63.2284 21.3084 62.5598 21.5866 61.9453C22.3527 62.2278 23.0221 62.7071 23.5606 63.3246C25.7117 65.7752 25.9482 69.6081 24.361 72.4208C24.2449 72.5875 24.0114 72.5785 23.8388 72.6491C22.4851 73.0143 21.0808 73.1916 19.6795 73.175C18.7155 73.1991 17.7947 72.852 16.9646 72.3817C16.0229 71.8123 15.0307 71.2368 14.3419 70.3533C14.5443 69.6291 15.541 69.7283 15.9188 69.1453C16.1732 68.7637 16.3666 68.34 16.679 67.9989C17.332 68.8433 17.8066 69.8575 18.6828 70.5036C19.3775 71.0069 20.1362 71.5448 21.0228 71.5734C20.5304 71.1136 19.9041 70.8311 19.4191 70.3593C18.473 69.5615 17.8572 68.4707 17.2904 67.3874C16.1747 66.7413 14.8076 66.9456 13.5729 66.8931C13.1236 66.7789 13.1043 67.3498 12.9272 67.6263C12.8439 67.9208 12.4958 67.8516 12.2652 67.8562C11.8606 67.8336 11.6152 67.3558 11.6806 66.9832C12.0257 66.4874 12.4676 66.0036 13.0596 65.8218C13.6175 65.6415 14.211 65.7016 14.7882 65.7001C15.5841 65.7151 16.319 66.0967 17.1133 66.1283C16.8843 65.688 16.6819 65.2328 16.4276 64.8061C15.779 64.5867 15.0738 64.6543 14.4119 64.48C13.2411 64.2126 12.0525 63.867 11.0395 63.1924C9.775 62.3044 8.95087 60.9581 8.18624 59.6405C8.07616 59.4196 8.15946 59.1612 8.14756 58.9268C8.64591 58.8757 9.14872 58.9178 9.64707 58.8727C10.1157 58.5932 10.4935 58.1845 10.9606 57.9006C11.2581 59.2573 11.5289 60.6982 12.4155 61.8086C12.7353 62.1872 13.1013 62.5493 13.5788 62.7146C13.0091 61.8536 12.3738 61.0062 12.1284 59.977C11.7967 59.2077 11.8621 58.3543 11.7178 57.5535C10.9487 56.8804 9.95798 56.5513 9.13682 55.9563C8.90624 55.782 8.62211 55.7204 8.3469 55.6618C8.05384 55.9248 7.8426 56.4627 7.37401 56.374C6.91285 56.3049 6.73434 55.7069 6.80574 55.2997C7.29517 54.855 7.9631 54.5545 8.63252 54.6642C9.95351 54.9857 11.0588 55.8241 12.1805 56.5543C12.1239 56.1907 12.1031 55.8166 11.9945 55.465C11.4828 55.1074 10.8505 55.0142 10.2882 54.7678C9.0907 54.2149 7.92145 53.5162 7.075 52.4765C6.31484 51.4368 5.93401 50.1867 5.44161 49.0087C5.80012 48.3281 6.58112 48.7683 7.15979 48.7698C7.55996 48.5865 7.9274 48.3371 8.33351 48.1613C8.39599 48.9907 8.43616 49.8276 8.57004 50.6495C8.87203 51.4984 9.11153 52.484 9.92376 52.9934C9.68575 52.3052 9.32575 51.6561 9.23054 50.9244C9.09665 49.8727 9.23798 48.8029 9.12492 47.7511C8.64442 47.2628 8.07913 46.8707 7.56145 46.4259C7.21335 46.1465 6.88013 45.8264 6.45765 45.6672C6.05748 45.7798 5.72872 46.2276 5.28541 46.0894C4.96855 45.7934 4.94178 45.1683 5.32558 44.9159C5.6469 44.5448 6.16905 44.6154 6.60492 44.6394C7.94525 45.0737 8.70393 46.3418 9.82409 47.1081C9.78839 46.8737 9.85979 46.5822 9.64707 46.4154C8.82442 45.6416 7.795 45.1007 7.07946 44.2082C5.93996 42.7869 5.49963 40.8802 5.62459 39.0802C6.0307 39.1613 6.36095 39.4257 6.74327 39.5625C7.18657 39.5414 7.57781 39.3131 7.97351 39.1358C8.06128 40.2206 7.69682 41.2979 7.89467 42.3782C8.02112 42.9747 8.24723 43.5546 8.60426 44.052C8.40492 42.7222 8.18624 41.3475 8.52244 40.0207C8.60872 39.564 8.79765 39.0126 8.44508 38.6219C7.91698 37.9262 7.4588 37.1404 6.74029 36.6251C6.4874 36.6822 6.25533 36.8039 6.00393 36.8685C5.81798 36.7212 5.57996 36.5499 5.59335 36.284C5.57698 36.0136 5.78674 35.8107 5.90723 35.5898C6.24789 35.5913 6.60046 35.5418 6.93368 35.6409C7.69831 36.2164 8.26508 37.0067 8.83037 37.7715C8.95384 37.9518 9.13682 38.0735 9.30938 38.2042C9.27963 37.9518 9.32277 37.6633 9.12789 37.4695C8.37368 36.5424 7.6031 35.5808 7.22227 34.4284C6.98723 33.7658 7.08244 33.0551 7.05715 32.3685C7.03335 31.7239 7.12707 31.0778 7.32343 30.4663C7.74145 30.4964 8.00475 30.869 8.37368 31.0222C8.73517 31.1109 9.11153 31.1229 9.48046 31.1755C9.02227 32.0695 8.62211 33.0176 8.50608 34.0272C8.45103 34.4164 8.54327 34.8025 8.69649 35.1586C8.84079 34.2496 8.90773 33.294 9.37484 32.4797C9.58161 31.9853 9.94161 31.5496 10.077 31.0343C9.84343 30.2319 9.5236 29.4581 9.18442 28.6979C8.87946 28.6378 8.57599 28.5762 8.27252 28.504C8.13715 28.0788 8.4436 27.4974 8.93302 27.5935C9.35252 27.8024 9.66194 28.1825 9.9431 28.5521C10.4489 29.2463 10.4176 30.1448 10.6869 30.9306C10.8684 30.6872 11.2105 30.4768 11.1257 30.1282C11.0439 29.6174 10.7256 29.1937 10.4995 28.7414C9.77798 27.3576 9.44178 25.6959 9.89103 24.1693C10.071 23.5638 10.1811 22.9117 10.5277 22.3753C10.62 22.189 10.8223 22.2055 10.9948 22.2251C11.2671 22.4534 11.4188 22.802 11.7148 23.0019C12.0942 23.1431 12.5018 23.1716 12.8945 23.2588C12.3352 24.1047 11.6553 24.898 11.3757 25.8972C11.2507 26.4231 10.9636 27.0286 11.3489 27.5109C11.5155 26.7536 11.6925 25.9798 12.0912 25.3067C12.4155 24.7493 12.9257 24.3391 13.2724 23.8012C13.5446 23.3564 13.5624 22.8035 13.4598 22.3032C13.3467 21.7758 13.2872 21.2244 13.0462 20.7361C12.841 20.2207 12.0376 20.4837 11.8874 19.9067C11.999 19.5311 12.4006 19.1419 12.8112 19.2937C13.2188 19.465 13.5267 19.8135 13.7692 20.1771C14.2259 21.1403 14.1337 22.2401 14.3479 23.2633C14.51 23.0905 14.6811 22.9222 14.8135 22.7239C14.8983 22.4685 14.7287 22.2311 14.6439 22.0027C13.6874 20.078 13.8897 17.6424 15.0605 15.8559C15.4502 16.164 15.7329 16.5832 16.1092 16.9032C16.3889 17.0009 16.6849 17.0399 16.9705 17.1105C16.191 18.1713 15.0857 19.2967 15.3848 20.7466C15.5276 19.9653 15.77 19.1855 16.2639 18.5529C17.0152 17.6499 17.9747 16.9618 18.9 16.2541ZM16.435 22.3918C17.4049 21.8104 17.9241 20.703 17.8572 19.5776C16.859 20.1005 16.3249 21.286 16.435 22.3918ZM12.6223 29.2448C13.8332 28.6137 14.0459 27.1262 14.1471 25.8927C13.0284 26.5448 12.3887 27.9601 12.6223 29.2448ZM10.1231 36.5094C10.4548 36.1473 10.8372 35.7852 10.9428 35.2818C11.0945 34.5787 11.0543 33.8274 10.7657 33.1648C10.2897 34.194 9.63814 35.3555 10.1231 36.5094ZM10.4459 44.8753C10.6081 44.6695 10.7925 44.4757 10.9145 44.2413C11.2343 43.176 10.8848 42.0491 10.257 41.1717C9.75566 42.3466 9.84789 43.7545 10.4459 44.8753ZM11.2998 49.7254C11.1049 50.2859 11.1064 50.8869 11.1451 51.4713C11.2462 52.3127 11.7892 53.0054 12.414 53.5328C12.9064 52.1805 12.3857 50.6149 11.2998 49.7254ZM14.3122 58.9523C14.3107 59.5533 14.214 60.1874 14.4907 60.7463C14.8046 61.5516 15.3357 62.4456 16.2743 62.5538C16.2803 62.043 16.3755 61.5066 16.1628 61.0243C15.8176 60.1318 15.0724 59.4857 14.3122 58.9523ZM20.337 67.6518C20.6241 69.1994 22.0924 70.3458 23.6023 70.5156C23.4312 69.8244 23.1664 69.1107 22.619 68.6329C22.0001 68.0425 21.1567 67.7885 20.337 67.6518Z" fill="#C09300"/>
<path d="M65.386 15.8589C65.5615 15.6276 65.7043 15.3376 65.987 15.2219C66.4169 15.1032 66.8662 15.4262 66.9599 15.8544C66.7769 16.1384 66.46 16.3488 66.1194 16.3533C65.8278 16.2766 65.6151 16.0408 65.386 15.8589Z" fill="#C09300"/>
<path d="M69.8921 16.0633C69.8415 15.8484 69.8519 15.6261 69.8579 15.4067C71.579 16.3758 73.1827 17.5928 74.4888 19.0908C74.8607 19.7189 75.0213 20.4431 75.3203 21.1057C75.3977 20.4897 75.2832 19.8721 74.9946 19.3252C74.7075 18.583 74.0827 18.0721 73.6185 17.4531C73.9964 17.2458 74.4129 17.1346 74.8398 17.0985C74.9499 16.8671 75.0541 16.6342 75.1612 16.4029C75.2936 16.3923 75.5584 16.3713 75.6893 16.3608C76.0686 17.106 76.4271 17.8768 76.6012 18.7002C76.7261 19.767 76.6503 20.8788 76.2441 21.881C76.1117 22.2476 75.9481 22.6187 75.9466 23.0154C76.0136 23.2378 76.1787 23.4075 76.3081 23.5969C76.4152 23.0394 76.3468 22.4685 76.4271 21.9095C76.6532 21.1974 76.8347 20.416 77.4089 19.8932C77.6589 19.5761 78.1126 19.7189 78.4622 19.7024C78.6169 19.9548 78.727 20.2943 78.541 20.5633C78.2747 20.7181 77.9638 20.7782 77.702 20.9434C77.5309 21.1042 77.5027 21.3491 77.4536 21.5655C77.3167 22.3122 77.1412 23.0529 77.0668 23.8087C77.2825 24.2324 77.705 24.4999 77.9772 24.8845C78.3298 25.3878 78.718 25.8822 78.9337 26.4666C79.023 26.9084 78.9977 27.3651 79.0379 27.8129C79.3904 27.6671 79.6879 27.3907 79.5556 26.97C79.2491 25.7289 78.5306 24.6411 77.8002 23.6149C78.1825 23.5413 78.5648 23.4631 78.9486 23.391C79.2164 22.9553 79.5139 22.5226 79.9736 22.2701C80.6475 23.6239 80.9658 25.158 80.9598 26.668C80.6698 27.9541 80.2012 29.2177 79.4812 30.3236C79.3041 30.579 79.5942 31.0403 79.8962 30.9997C80.2681 30.0832 80.4169 29.0434 81.0595 28.2591C81.357 27.879 81.8703 27.9361 82.2957 27.9797C82.5144 28.1509 82.6007 28.4289 82.5709 28.7024C82.327 29.0525 81.8584 28.9743 81.5073 29.1261C81.1815 29.7421 80.9197 30.3942 80.6787 31.0493C80.399 31.769 81.0432 32.361 81.2856 32.986C81.723 33.7433 81.6114 34.6748 82.0279 35.4396C82.2942 34.0453 81.839 32.6464 81.1726 31.4384C81.5281 31.4279 81.8896 31.4565 82.2451 31.4039C82.5828 31.1484 82.9056 30.8675 83.288 30.6797C83.6048 31.5616 83.5944 32.5052 83.6241 33.4292C83.7491 34.7515 82.9934 35.9459 82.2556 36.9722C81.9208 37.483 81.3258 37.8511 81.2648 38.5077C82.3106 37.7865 82.739 36.3186 83.9975 35.8753C84.5256 35.71 84.9124 36.0932 85.2531 36.4388C85.1058 36.6792 84.9556 36.9166 84.7994 37.1495C84.478 37.1209 84.1597 37.0488 83.8369 37.0563C83.1823 37.498 82.7837 38.2102 82.3106 38.8277C82.144 39.0922 81.8777 39.3732 81.9729 39.7142C82.1544 40.7119 82.3448 41.7216 82.3061 42.7418C82.2972 43.2677 82.1053 43.7665 82.0562 44.2894C82.3552 43.8702 82.6617 43.4104 82.7093 42.883C82.7628 41.7171 82.6676 40.5511 82.6319 39.3867C83.0856 39.573 83.52 39.9561 84.0436 39.8194C84.3888 39.6947 84.7056 39.5009 85.0493 39.3671C85.1296 39.6857 85.2784 40.0102 85.204 40.3468C84.9793 41.4256 84.7369 42.5074 84.2906 43.5201C83.5929 44.8783 82.3537 45.8144 81.125 46.6528C80.8349 46.7865 80.9346 47.1261 80.9033 47.3815C81.8435 46.6182 82.6483 45.6657 83.7194 45.0737C84.2772 45.0767 84.9793 44.8558 85.4093 45.3291C85.7812 45.5995 85.6979 46.3403 85.2203 46.4364C84.8559 46.5807 84.5792 46.2141 84.2519 46.1269C83.5334 46.3493 82.9726 46.8722 82.3879 47.3229C82.0651 47.6084 81.7081 47.8999 81.5445 48.3116C81.4879 49.2521 81.5519 50.1987 81.5043 51.1408C81.4284 51.9852 80.9688 52.7019 80.5984 53.4381C81.3987 52.9227 81.7483 51.9717 81.9699 51.0852C82.199 50.2107 82.2005 49.3017 82.2109 48.4032C82.8387 48.6196 83.3891 49.3994 84.1061 49.0718C84.3263 48.9892 84.5435 48.896 84.7637 48.8104C85.1594 49.0688 85.1638 49.5526 84.9898 49.9523C84.4825 51.243 83.9217 52.5802 82.8952 53.5448C81.6709 54.6341 80.1298 55.2501 78.6094 55.788C78.6154 56.1576 78.6258 56.5258 78.657 56.8954C79.4812 56.1907 80.3901 55.5657 81.421 55.2171C82.1008 54.9436 83.0232 54.8505 83.5632 55.4515C83.8889 55.6979 83.7402 56.1471 83.7655 56.4957C83.5334 56.6084 83.2999 56.7166 83.0648 56.8202C82.8476 56.5934 82.6438 56.3515 82.4043 56.1486C81.6516 56.2117 81.0045 56.6595 80.341 56.9825C79.8739 57.2455 79.3041 57.4453 79.0275 57.9381C78.7656 59.0605 78.6645 60.2309 78.2018 61.2977C77.9296 61.9693 77.3197 62.4216 77.0296 63.0842C77.8418 62.8017 78.3074 62.046 78.6957 61.3248C79.3503 60.3842 79.3904 59.1987 79.7237 58.1349C80.158 58.3483 80.3633 58.8096 80.7203 59.1116C81.3184 59.2964 82.0845 58.9643 82.559 59.4917C82.6855 59.8778 82.3775 60.1979 82.196 60.5029C81.6129 61.3112 81.116 62.1932 80.3931 62.8889C79.7385 63.589 78.8266 63.9316 77.9891 64.3478C76.8332 64.8947 75.5435 64.9758 74.2879 64.9218C74.0113 65.4506 73.7271 65.978 73.5203 66.54C74.044 66.4859 74.5096 66.2139 75.0199 66.1117C75.7696 66.0742 76.5208 66.1162 77.2721 66.1178C77.8984 66.1102 78.4711 66.5189 78.8088 67.0313C79.1108 67.4925 78.7701 68.349 78.1542 68.2198C77.647 68.2829 77.6113 67.6413 77.4803 67.2927C76.3304 67.3498 75.1537 67.159 74.0276 67.458C73.3463 67.5992 73.0964 68.3294 72.7661 68.8583C72.2514 69.847 71.3931 70.5832 70.5124 71.2278C70.1718 71.4441 69.8341 71.6695 69.5737 71.9835C70.746 71.7521 71.8096 71.0835 72.5876 70.176C73.1946 69.6066 73.5709 68.8478 74.1437 68.2498C74.4263 68.7456 74.4962 69.3572 74.8726 69.7959C75.2936 70.0453 75.7964 70.0799 76.262 70.1986C76.265 70.5516 76.2694 70.9483 75.9303 71.1557C74.6331 72.1638 73.2347 73.187 71.5894 73.4815C70.2164 73.5026 68.8225 73.5251 67.4851 73.1555C67.0136 73.0067 66.3784 72.9842 66.1478 72.4643C65.7164 71.5598 65.462 70.5787 65.2731 69.5976C65.2493 69.0071 65.3192 68.4166 65.2984 67.8261C65.5379 65.5107 66.8395 63.0797 69.0992 62.2398C69.3402 62.8949 69.5618 63.598 69.4934 64.3042C68.4491 65.066 67.1415 65.7016 66.6104 66.9607C67.2918 66.7173 67.7291 66.1027 68.3241 65.7226C69.0129 65.1862 69.7924 64.791 70.5124 64.3042C70.5972 64.0924 70.5823 63.858 70.5987 63.6356C70.6255 62.5854 70.7965 61.5381 70.7207 60.4864C70.3964 60.0206 69.7329 59.7441 69.7061 59.1071C69.6139 58.3798 70.7519 57.9216 71.1759 58.5151C71.4124 58.6894 71.3633 59.0004 71.3767 59.2588C71.3559 60.9086 71.4124 62.5628 71.2726 64.2081C71.8691 64.3027 72.2975 63.7919 72.5281 63.3036C72.7081 62.5298 72.1265 61.8912 71.9152 61.1925C71.5731 60.4473 71.6757 59.6149 71.646 58.8201C71.5522 57.295 72.0952 55.7024 73.2288 54.6626C73.6691 55.148 74.0425 55.6904 74.3653 56.2613C73.8625 57.1328 73.2541 57.9471 72.8554 58.8772C72.7156 59.1506 72.7066 59.4617 72.7051 59.7652C73.257 59.086 73.5471 58.2401 74.0618 57.5339C74.3266 57.0126 74.8919 56.685 75.0556 56.1111C75.1805 54.8114 74.578 53.6064 74.0752 52.4525C73.565 52.3548 72.8911 52.2647 72.7468 51.6546C72.4106 51.0401 73.3032 50.1161 73.8446 50.6945C74.4992 51.1648 74.4635 52.0573 74.8086 52.7229C75.2594 53.689 75.4081 54.8009 76.0418 55.6753C76.3513 55.2441 77.0311 54.6642 76.5952 54.1127C76.1713 53.387 75.5941 52.7545 75.2668 51.9732C74.9246 50.9905 74.7789 49.9418 74.7997 48.902C74.7714 48.0727 75.0184 47.2162 75.545 46.5747C75.5941 46.5581 75.6893 46.5251 75.7369 46.5086C76.1638 46.8737 76.5774 47.2673 76.9344 47.703C76.619 48.8359 75.8336 49.8877 76.0165 51.1212C76.5744 50.2062 76.7693 49.1259 77.2899 48.1914C77.4655 47.7917 77.827 47.3635 77.5889 46.9112C77.1679 45.9631 76.5908 45.0962 76.0835 44.1932C75.7384 44.1977 75.3947 44.2037 75.0526 44.2067C74.7655 43.8882 74.404 43.5471 74.5468 43.0708C74.7759 42.7358 75.2876 42.3091 75.6565 42.6937C76.1817 43.1189 76.2784 43.8476 76.7008 44.357C77.3182 45.1338 77.7169 46.0578 78.3521 46.8226C78.5246 46.5371 78.7046 46.2396 78.7314 45.8985C78.3238 45.275 77.6901 44.8318 77.3256 44.1752C76.8749 43.3638 76.4792 42.4909 76.4063 41.5518C76.3706 40.6443 76.326 39.6977 76.7098 38.8503C77.1322 39.1027 77.583 39.3296 77.9415 39.6752C77.9772 40.8306 77.3286 42.001 77.7481 43.1429C78.1334 41.8643 78.1111 40.485 78.663 39.25C78.1066 38.38 77.4432 37.5882 76.8035 36.7828C76.323 36.7738 75.6833 37.0338 75.3709 36.5244C74.7803 35.979 75.838 34.8025 76.3483 35.5373C77.1382 36.4478 77.8448 37.4334 78.6526 38.3289C78.8013 38.5663 79.0989 38.4867 79.3339 38.5212C79.3012 38.2838 79.3443 38.0029 79.1539 37.8226C78.541 37.0893 77.7005 36.583 77.1367 35.8047C76.4212 34.8671 75.9184 33.7057 75.9779 32.5037C76.4613 32.5758 77.2111 32.5638 77.3182 33.1843C77.4253 34.0092 77.4759 34.8717 77.9132 35.6034C78.0605 34.4479 77.8106 33.297 77.638 32.1611C77.0415 31.6954 76.4018 31.2882 75.7815 30.857C75.2891 30.5039 74.6405 31.3197 74.2076 30.7999C73.745 30.4498 74.1794 29.6805 74.6985 29.8142C75.8425 30.2575 76.7202 31.2206 77.882 31.6247C77.8389 31.2716 77.8374 30.8389 77.4655 30.6676C76.3156 30.0787 74.9797 29.8067 74.0127 28.8917C73.0175 28.1675 72.3258 27.0571 72.1309 25.8326C72.6546 25.8281 73.1797 25.8296 73.7063 25.8251C74.0782 26.8648 74.3623 27.9691 74.9708 28.8992C74.9975 28.1675 74.6673 27.4913 74.4397 26.8152C74.2463 26.3585 74.2389 25.8506 74.0633 25.3908C73.382 24.7733 72.4627 24.5119 71.6147 24.2159C71.0524 23.9259 70.7147 24.7974 70.136 24.6381C69.8713 24.3842 69.4399 23.9935 69.7463 23.6119C69.9456 23.358 70.3071 23.0259 70.6389 23.2453C71.698 23.7636 72.7944 24.2114 73.9369 24.5029C73.8848 24.3015 73.8194 24.1047 73.739 23.9154C72.9491 23.406 71.9003 23.5247 71.1536 22.9237C70.087 22.1259 69.0129 21.1057 68.821 19.7069C69.3 19.6963 69.7805 19.6963 70.2595 19.7009C70.5422 20.5573 70.7385 21.5054 71.3827 22.1725C71.347 21.4408 71.0093 20.7782 70.804 20.087C70.4202 18.7663 70.1688 17.411 69.8921 16.0633ZM72.8509 19.8481C72.7185 20.9134 73.083 22.3107 74.2448 22.6127C74.2359 21.5279 73.7256 20.4822 72.8509 19.8481ZM76.6517 26.2608C76.6235 26.9249 76.5893 27.6206 76.86 28.2456C77.0698 28.773 77.5116 29.1471 77.9489 29.4822C77.9623 29.0074 78.004 28.5281 77.943 28.0563C77.7094 27.3411 77.223 26.7311 76.6517 26.2608ZM79.7727 33.7042C79.2789 34.6703 79.6433 35.8318 80.2428 36.6581C80.7531 36.7678 80.5716 36.1398 80.6162 35.8287C80.6727 35.0354 80.3618 34.2346 79.7727 33.7042ZM79.9557 42.306C79.6775 43.0062 79.3413 43.801 79.6537 44.5478C79.7727 44.7747 79.8575 45.1939 80.1937 45.1142C80.878 44.0204 80.5671 42.6742 80.5775 41.4571C80.3261 41.7035 80.0822 41.9695 79.9557 42.306ZM78.1334 53.7176C78.4428 53.677 78.7478 53.5658 78.9055 53.2713C79.6136 52.3864 79.5942 51.1919 79.5094 50.1191C78.1795 50.7336 77.937 52.4059 78.1334 53.7176ZM74.5557 61.3338C74.3132 61.8551 74.4159 62.4456 74.4218 63.0016C75.8603 62.4456 76.6071 60.6922 76.3245 59.2167C75.5911 59.7802 74.9663 60.4969 74.5557 61.3338ZM68.5086 68.6209C67.7142 69.1077 67.1638 69.9957 67.1192 70.9363C67.8124 70.7004 68.5666 70.4991 69.0947 69.9566C69.663 69.4248 70.0661 68.7471 70.4365 68.0695C69.7642 68.1071 69.0828 68.2573 68.5086 68.6209Z" fill="#C09300"/>
<path d="M58.5475 18.586C58.9655 18.0496 59.3062 17.4531 59.751 16.9362C60.108 17.4771 60.1036 18.2104 59.9221 18.8189C59.7644 19.459 59.1887 19.8511 58.784 20.3289C57.6609 21.5865 56.6522 23.0034 55.2152 23.9214C55.062 23.6569 54.8269 23.3955 54.882 23.0665C55.0099 22.7479 55.242 22.4865 55.4636 22.2311C56.5213 21.0426 57.5686 19.8436 58.5475 18.586Z" fill="#C09300"/>
<path d="M56.349 23.7291C57.5763 22.5015 58.579 21.0561 59.8836 19.9097C59.8895 20.374 59.9892 20.8788 59.7348 21.298C59.1859 22.4279 58.1937 23.2408 57.3591 24.1468C56.6956 24.883 56.0292 25.6147 55.3538 26.3389C55.1604 25.8927 54.9864 25.3983 55.0741 24.9055C55.4505 24.4608 55.9414 24.1392 56.349 23.7291Z" fill="#C09300"/>
<path d="M27.7392 23.062C27.47 22.2746 27.6886 21.3761 28.19 20.7316C28.672 21.4858 28.8073 22.3948 29.2581 23.1626C29.4812 23.5773 29.749 23.9665 29.9989 24.3646C30.4021 25.0272 30.5449 25.807 30.6579 26.5643C29.9513 26.2698 29.4411 25.6793 29.0216 25.0558C28.5961 24.3887 27.9653 23.8433 27.7392 23.062Z" fill="#C09300"/>
<path d="M59.1887 22.9913C59.3359 22.8291 59.5576 22.8005 59.7555 22.7389C59.7986 23.059 59.8715 23.4015 59.7436 23.714C59.4669 24.3045 59.1842 24.907 58.7335 25.3848C57.7234 26.4426 56.6806 27.4673 55.5738 28.4214C55.6229 27.7994 55.3551 27.0301 55.8683 26.5448C56.4455 25.8792 57.1105 25.2947 57.6654 24.608C58.1265 24.0266 58.6487 23.4977 59.1887 22.9913Z" fill="#C09300"/>
<path d="M51.9993 26.5433C52.9126 25.5426 53.5032 24.261 54.6099 23.4406C54.6174 23.9409 54.72 24.4968 54.4389 24.9446C54.0223 25.6102 53.5136 26.2112 52.9662 26.7701C52.3518 27.3922 51.791 28.0698 51.1231 28.6347C51.0948 28.2937 51.0442 27.9496 51.0933 27.6085C51.367 27.2299 51.7047 26.9039 51.9993 26.5433Z" fill="#C09300"/>
<path d="M27.4076 24.2925C28.0874 24.7943 28.6066 25.484 29.2923 25.9843C29.807 26.3945 30.4556 26.7761 30.6118 27.4733C30.7219 28.0563 30.6445 28.6573 30.6118 29.2463C29.9751 28.8842 29.4307 28.3658 29.0231 27.7558C28.4816 26.9865 27.7348 26.3494 27.3853 25.4569C27.3213 25.0708 27.3734 24.6771 27.4076 24.2925Z" fill="#C09300"/>
<path d="M52.9126 27.4688C53.582 26.8302 54.1606 26.0985 54.8642 25.496C54.891 26.1196 54.7423 26.7551 54.2915 27.2059C53.2993 28.3012 52.2089 29.3079 51.0888 30.2695C51.1096 29.9029 51.004 29.4987 51.1617 29.1576C51.6645 28.5145 52.3517 28.0548 52.9126 27.4688Z" fill="#C09300"/>
<path d="M56.5169 28.1074C57.5211 27.3366 58.3437 26.3569 59.3405 25.5771C59.397 26.073 59.4044 26.5943 59.2081 27.0616C58.8957 27.7137 58.3363 28.187 57.8498 28.6994C57.0108 29.5708 56.1331 30.4062 55.2019 31.177C55.1944 30.5429 55.062 29.8773 55.2331 29.2598C55.5931 28.806 56.0751 28.474 56.5169 28.1074Z" fill="#C09300"/>
<path d="M31.3839 26.5568C32.4446 28.0533 33.6257 29.4596 34.6879 30.9531C33.3907 30.896 32.5338 29.7977 31.8585 28.809C31.4791 28.1359 30.8648 27.3321 31.3839 26.5568Z" fill="#C09300"/>
<path d="M27.2514 26.97C28.0473 27.6732 28.7376 28.489 29.4725 29.2538C29.8072 29.6114 30.2386 29.8939 30.4796 30.3311C30.5064 30.9426 30.6447 31.5481 30.6283 32.1611C30.5421 32.1657 30.3695 32.1777 30.2832 32.1822C29.3743 31.5166 28.4832 30.7969 27.7989 29.8879C27.119 29.0885 27.2217 27.9496 27.2514 26.97Z" fill="#C09300"/>
<path d="M52.4676 29.7241C53.3259 28.9187 54.1277 28.0518 55.0114 27.2735C55.0114 27.7678 55.1586 28.3523 54.7778 28.7504C53.6591 29.9975 52.5747 31.3152 51.2076 32.2964C51.1421 31.9418 51.0543 31.5827 51.09 31.2206C51.4917 30.6736 51.999 30.2124 52.4676 29.7241Z" fill="#C09300"/>
<path d="M47.9946 32.0214C48.2832 30.5384 49.4778 29.5002 50.409 28.4034C50.4685 29.0299 50.3674 29.697 49.9598 30.1958C49.3974 30.896 48.7191 31.4985 47.9946 32.0214Z" fill="#C09300"/>
<path d="M56.9185 30.313C57.6549 29.709 58.2336 28.9308 59.0027 28.3703C59.0726 29.6249 58.0938 30.4948 57.402 31.4024C56.6106 32.1957 55.8028 32.9845 54.9206 33.6726C54.9192 33.0401 54.7272 32.2678 55.2464 31.778C55.7879 31.2716 56.383 30.8254 56.9185 30.313Z" fill="#C09300"/>
<path d="M31.2085 28.5371C31.7782 29.1727 32.2736 29.8743 32.8671 30.4873C33.4026 31.0628 34.2803 31.2566 34.6448 32.0033C34.8575 32.3114 34.7013 32.977 34.2535 32.8913C33.5306 32.7937 33.0129 32.2212 32.5741 31.6818C32.1546 31.1544 31.6309 30.6977 31.3319 30.0832C31.085 29.6054 31.1846 29.051 31.2085 28.5371Z" fill="#C09300"/>
<path d="M52.136 32.0935C53.0078 31.2566 53.7605 30.2845 54.7394 29.5678C54.7796 31.0598 53.5017 32.0199 52.5585 32.9695C52.0393 33.3811 51.5722 34.0227 50.8433 33.9806C50.8626 33.1272 51.6139 32.6509 52.136 32.0935Z" fill="#C09300"/>
<path d="M48.3707 32.3474C48.9509 31.6698 49.4954 30.9351 50.2229 30.4107C50.3463 30.3927 50.5933 30.3536 50.7168 30.3341C50.5516 30.7878 50.3419 31.2356 49.9804 31.5631C49.2202 32.2828 48.5983 33.1528 47.7296 33.7463C47.6031 33.1678 48.0479 32.7531 48.3707 32.3474Z" fill="#C09300"/>
<path d="M56.4992 33.0461C57.3665 32.1897 58.0686 31.171 59.0177 30.3972C58.9969 31.7539 58.1415 32.8808 57.3323 33.886C56.7625 34.5606 56.2091 35.2713 55.4936 35.7942C55.1068 35.9204 54.8614 35.5357 54.7319 35.2307C55.1157 34.3548 55.8447 33.7117 56.4992 33.0461Z" fill="#C09300"/>
<path d="M27.5964 30.8179C28.1513 31.0252 28.6407 31.3723 29.1168 31.7224C29.6761 32.1446 30.2548 32.5623 30.6877 33.1242C31.0775 33.6922 31.0968 34.4134 31.198 35.073C30.3738 34.8281 29.7401 34.2331 29.0885 33.7027C28.254 32.9815 27.7452 31.9042 27.5964 30.8179Z" fill="#C09300"/>
<path d="M31.0625 31.0748C31.7155 31.4564 32.1157 32.1446 32.7613 32.5382C33.337 32.8958 33.9484 33.2294 34.3783 33.7703C34.6669 34.0648 34.6446 34.502 34.7071 34.8806C34.3054 34.8716 33.8726 34.8776 33.5378 34.6162C33.0484 34.2586 32.5635 33.8935 32.0681 33.5449C31.2931 33.0085 30.9033 32.0048 31.0625 31.0748Z" fill="#C09300"/>
<path d="M51.1855 34.6222C52.3964 33.6441 53.5686 32.6224 54.7304 31.5856C54.9446 32.5683 54.1726 33.3391 53.5463 33.9686C52.8843 34.5937 52.1673 35.393 51.175 35.3194C51.1765 35.0865 51.181 34.8536 51.1855 34.6222Z" fill="#C09300"/>
<path d="M35.4079 31.8336C36.3109 32.3715 36.8152 33.3902 36.8598 34.4299C36.1324 33.7568 35.216 32.9469 35.4079 31.8336Z" fill="#C09300"/>
<path d="M35.2666 33.2159C36.055 33.9866 36.8211 34.9062 37.0071 36.033C36.2707 35.7686 35.6162 35.1977 35.3618 34.4359C35.2101 34.0482 35.2755 33.6215 35.2666 33.2159Z" fill="#C09300"/>
<path d="M49.8301 33.6727C50.0786 33.4863 50.3895 33.4413 50.6855 33.3782C50.5725 33.8424 50.3969 34.3052 50.0339 34.6298C49.3928 35.2578 48.7457 36.006 47.8353 36.2089C47.7877 36.1112 47.6895 35.9159 47.6404 35.8182C48.2384 34.9904 48.9703 34.2286 49.8301 33.6727Z" fill="#C09300"/>
<path d="M51.3044 36.2735C52.4216 35.5763 53.3692 34.6508 54.3956 33.8349C54.6039 34.5276 54.3123 35.2593 53.8378 35.7641C53.2026 36.4673 52.4424 37.1359 51.5097 37.3763C51.4339 37.0097 51.361 36.6431 51.3044 36.2735Z" fill="#C09300"/>
<path d="M28.7332 34.1865C29.6733 34.6553 30.4811 35.3554 31.2829 36.0255C31.4763 36.6235 31.442 37.2621 31.4182 37.8811C30.9258 37.6302 30.4662 37.3027 30.1359 36.8489C29.5439 36.0391 28.9994 35.1631 28.7332 34.1865Z" fill="#C09300"/>
<path d="M31.5535 34.0408C32.1916 34.2586 32.7629 34.6267 33.3535 34.9453C33.7388 35.1827 34.1642 35.4125 34.4112 35.8092C34.5346 36.2539 34.5391 36.7242 34.6105 37.1795C33.6287 37.2591 32.9741 36.4417 32.2913 35.8723C31.7588 35.4276 31.5921 34.7064 31.5535 34.0408Z" fill="#C09300"/>
<path d="M48.7873 36.2269C49.4344 35.7311 49.9521 35.073 50.6662 34.6628C50.7495 35.1752 50.6632 35.7115 50.2794 36.0842C49.7498 36.6882 49.0714 37.1389 48.3841 37.5401C48.1997 37.4995 48.0167 37.4484 47.8367 37.3898C48.0643 36.9346 48.3886 36.5394 48.7873 36.2269Z" fill="#C09300"/>
<path d="M34.8932 34.8972C35.3603 35.1 35.7098 35.4742 36.0014 35.8843C36.3778 36.4117 36.9743 36.906 36.8449 37.6302C36.2037 37.4364 35.7441 36.903 35.3439 36.3907C35.0345 35.958 34.795 35.4441 34.8932 34.8972Z" fill="#C09300"/>
<path d="M51.9695 37.9368C52.8933 37.2621 53.7546 36.5064 54.6442 35.7867C54.6115 36.4778 54.5535 37.2516 54.0417 37.7715C53.3664 38.5137 52.5155 39.2124 51.492 39.3341C51.4429 38.8247 51.4935 38.2313 51.9695 37.9368Z" fill="#C09300"/>
<path d="M48.652 37.9022C49.3155 37.2606 49.9656 36.574 50.8047 36.1638C50.9222 36.5665 51.0784 37.0848 50.6976 37.4034C49.985 38.0675 49.1891 38.661 48.3069 39.0742C48.2712 38.6505 48.3441 38.2132 48.652 37.9022Z" fill="#C09300"/>
<path d="M31.8317 36.3246C32.4952 36.55 33.0322 37.0037 33.5901 37.4139C34.1836 37.8361 34.6775 38.4386 34.795 39.1839C33.5588 38.9495 32.3791 38.2057 31.851 37.0202C31.8302 36.7889 31.8242 36.5575 31.8317 36.3246Z" fill="#C09300"/>
<path d="M48.3247 40.2491C48.8974 39.1568 49.9223 38.383 50.9606 37.776C50.8833 38.1771 50.913 38.6489 50.6066 38.9614C50.1574 39.4738 49.5995 39.8825 48.9971 40.189C48.7918 40.3107 48.5478 40.2506 48.3247 40.2491Z" fill="#C09300"/>
<path d="M54.3346 38.075C54.5042 37.9503 54.6871 37.8466 54.8686 37.7399C54.8835 38.0344 54.9162 38.3319 54.882 38.6264C54.2557 39.8314 53.0671 40.5902 51.8235 41.0214C51.7372 40.9598 51.5632 40.8381 51.4769 40.7765C51.4739 40.5196 51.4724 40.2626 51.4709 40.0057C52.3962 39.316 53.4257 38.7857 54.3346 38.075Z" fill="#C09300"/>
<path d="M32.089 38.4461C33.0679 38.685 33.8801 39.3356 34.6507 39.9576C35.042 40.2431 35.0241 40.7705 35.1372 41.1957C34.0735 40.9778 32.9385 40.5677 32.2824 39.6421C31.9968 39.3116 32.1113 38.8443 32.089 38.4461Z" fill="#C09300"/>
<path d="M48.6179 41.367C49.0344 40.3438 50.107 39.869 50.8925 39.1809C51.2108 39.7082 50.8106 40.2326 50.4492 40.6082C49.9627 41.086 49.2888 41.3339 48.6179 41.367Z" fill="#C09300"/>
<path d="M52.9155 40.8396C53.6489 40.491 54.2469 39.896 55.0264 39.6361C54.9996 39.9606 55.1409 40.3468 54.9193 40.6247C54.1353 41.7952 52.7266 42.2895 51.4309 42.6276C51.3847 42.3151 51.3476 42.0025 51.3223 41.6885C51.8325 41.3685 52.3755 41.1055 52.9155 40.8396Z" fill="#C09300"/>
<path d="M53.3976 42.2189C54.0477 41.9229 54.6041 41.4496 55.2809 41.2137C55.2973 41.6465 55.3285 42.1528 54.9521 42.4533C53.9436 43.4104 52.6017 44.1361 51.1855 44.0775C51.2093 43.8056 51.2093 43.5276 51.2882 43.2662C51.9264 42.7974 52.7029 42.5825 53.3976 42.2189Z" fill="#C09300"/>
<path d="M32.812 42.3511C33.6555 42.3346 34.4335 42.7102 35.2174 42.9716C35.8452 43.1685 36.3004 43.6658 36.6961 44.1721C35.811 44.2352 34.8679 44.2833 34.0541 43.8641C33.4338 43.5771 33.1259 42.9206 32.812 42.3511Z" fill="#C09300"/>
<path d="M48.1776 44.2278C48.9392 43.8972 49.7752 43.9858 50.5815 44.0009C50.5845 44.1556 50.586 44.3104 50.5905 44.4666C49.8005 44.677 48.9883 44.7927 48.1731 44.7852C48.1731 44.6454 48.1761 44.3675 48.1776 44.2278Z" fill="#C09300"/>
<path d="M34.1746 44.6259C35.0359 44.5673 35.8883 44.8092 36.6574 45.1863C35.9716 45.3351 35.268 45.4959 34.7325 45.9872C34.4156 45.592 34.1196 45.1623 34.1746 44.6259Z" fill="#C09300"/>
<path d="M51.0992 45.6836C52.3532 45.628 53.3797 44.6589 54.6322 44.6559C54.7021 45.329 54.0982 45.7723 53.5284 45.9376C52.5049 46.2696 51.4264 46.516 50.3464 46.4589C50.4476 46.0863 50.6365 45.6356 51.0992 45.6836Z" fill="#C09300"/>
<path d="M47.7876 45.4387C48.2428 44.9219 48.9673 45.0541 49.5758 45.0631C49.912 45.0436 50.1574 45.3275 50.2958 45.607C49.5207 46.0848 48.4808 46.0578 47.7876 45.4387Z" fill="#C09300"/>
<path d="M33.767 47.948C34.2773 47.1591 34.8559 46.3132 35.8036 46.0398C35.5938 46.4935 35.3067 46.9022 35.0821 47.347C35.6607 47.35 36.1249 46.9864 36.6426 46.7925C38.2388 46.4409 39.9822 46.5792 41.4341 47.3725C42.2642 47.7556 42.956 48.3912 43.8054 48.7413C44.155 48.8975 44.5239 49.0057 44.8675 49.1785C45.5637 49.5346 45.9371 50.3414 46.6824 50.6164C47.3504 50.7035 48.0272 50.5713 48.6966 50.6389C49.2471 50.9109 49.4761 51.5344 49.6874 52.0738C49.5178 52.2301 49.3467 52.3833 49.1756 52.5381C49.7156 52.8131 50.2765 53.1256 50.5398 53.7101C49.8347 53.4997 49.2233 52.9919 48.4661 52.9768C48.9897 53.8738 50.2586 53.8212 50.748 54.7363C49.6606 54.9121 48.9823 53.8588 48.0034 53.6274C48.0748 53.8513 48.0867 54.1518 48.359 54.2269C49.3586 54.7318 50.4624 55.1119 51.2776 55.9142C51.6585 56.2673 51.6986 56.8187 51.8161 57.298C51.1363 57.2815 50.4133 57.2695 49.7975 56.9495C49.2991 56.5994 48.8156 56.0314 48.1373 56.2463C47.6151 56.6475 47.4694 57.3747 46.9189 57.7518C46.3239 57.4378 46.0785 56.6715 45.3703 56.5423C45.708 57.4573 46.6259 58.192 46.4563 59.2513C46.4042 59.7652 45.8181 59.9439 45.3867 59.7817C45.0699 59.4842 44.8318 59.0995 44.7009 58.6833C44.3365 57.4738 44.4584 56.1636 44.0226 54.9752C43.9333 54.7152 43.5912 54.7949 43.3844 54.8069C43.31 55.1855 43.6358 55.4695 43.7206 55.8181C43.6522 56.4341 43.1642 56.9495 43.2208 57.5835C43.554 58.8952 45.0133 59.5909 45.1636 60.9867C45.2156 61.9243 45.4239 62.9309 45.0505 63.8279C44.4689 64.2742 43.7622 64.5191 43.1761 64.9623C42.5112 65.4176 42.2136 66.2094 41.7019 66.8059C41.5561 66.6722 41.4252 66.5264 41.2928 66.3822C40.9313 66.4753 40.5594 66.5219 40.186 66.5084C40.6665 66.1673 41.272 66.0066 41.6722 65.5543C42.1021 65.087 42.4829 64.5611 43.0095 64.1945C43.5317 63.8369 44.0568 63.4568 44.4451 62.9475C44.5641 62.0024 44.5432 60.9401 43.9765 60.1303C43.6298 59.6269 43.2193 59.1641 42.953 58.6082C42.7849 58.0388 43.1672 57.1568 42.4591 56.8743C41.507 56.4912 40.8302 55.6813 40.2679 54.849C39.7903 53.9535 39.5241 52.9393 39.4422 51.9281C39.4006 51.6636 39.2741 51.4263 39.167 51.1859C38.993 51.5855 38.9022 52.0122 38.7936 52.4329C37.794 52.0693 37.1692 51.1708 36.6798 50.2678C36.5414 51.3211 35.567 51.877 34.7786 52.4179C34.368 52.5051 33.8161 52.5862 33.5141 52.2136C33.2478 51.9446 33.053 51.6156 32.8373 51.3076C32.5963 51.7944 32.2735 52.2391 31.8197 52.5441C31.97 51.9506 32.1812 51.3211 32.7629 51.0266C32.272 50.4812 31.6502 50.0304 31.3467 49.3393C31.4984 48.7518 31.9224 48.277 32.3374 47.8548C32.7272 47.4521 33.1928 47.0915 33.7566 46.9954C33.3564 47.8503 32.4817 48.3251 31.9239 49.0628C32.6498 48.9426 33.3609 48.5865 33.767 47.948ZM35.5492 49.3137C35.3647 50.0424 34.6417 50.355 34.0645 50.7081C34.0675 50.974 34.072 51.2399 34.0824 51.5074C34.5897 51.0957 35.0806 50.651 35.4748 50.1251C35.924 49.449 36.2082 48.6677 36.7006 48.0216C37.5098 47.8037 38.2953 48.2845 39.0793 48.4242C39.0793 48.2815 39.0793 47.9945 39.0807 47.8503C38.4649 47.5227 37.7895 47.2884 37.0859 47.3169C36.2736 47.673 35.7961 48.4904 35.5492 49.3137ZM33.8533 49.2762C33.8622 48.9381 33.883 48.6 33.886 48.262C33.3936 48.9591 32.9711 49.7029 32.4311 50.367C33.7819 50.4331 35.0969 49.5331 35.4718 48.2064C34.8887 48.4949 34.3933 48.9201 33.8533 49.2762ZM44.7069 51.0867C45.0371 52.1444 46.0383 52.7845 46.9219 53.3404C46.55 52.2947 45.5831 51.6667 44.7069 51.0867ZM41.3062 51.5825C41.5115 52.7349 42.4859 53.4907 43.3695 54.1323C44.0211 54.565 44.5522 55.151 45.1963 55.5927C44.9226 54.6461 44.0107 54.1788 43.307 53.5989C42.5246 53.0445 42.117 52.1024 41.3062 51.5825ZM40.0194 52.747C40.0209 52.8717 40.0209 53.1211 40.0224 53.2458C40.3274 54 40.7885 54.6852 41.388 55.2336C41.937 55.7309 42.346 56.4236 43.0541 56.7106C43.0408 56.4266 43.0556 56.1396 42.9961 55.8616C42.4978 55.3418 41.7882 55.0984 41.2839 54.586C40.7037 54.0857 40.6115 53.2398 40.0194 52.747ZM44.5358 52.7259C44.6905 53.2638 45.1279 53.6379 45.5682 53.9444C45.3837 53.4231 44.988 53.0204 44.5358 52.7259ZM40.8807 53.1932C41.0146 54.0196 41.7183 54.58 42.4145 54.9376C42.0723 54.2284 41.516 53.6439 40.8807 53.1932Z" fill="#C09300"/>
<path d="M53.1224 46.483C53.5553 46.3733 54.0045 46.3733 54.4478 46.3883C54.1533 47.0644 53.4556 47.4926 52.7252 47.4416C51.8683 47.404 50.9921 47.5362 50.1502 47.3289C49.9032 47.3078 49.7664 47.09 49.6072 46.9307C50.7943 46.9442 51.9695 46.7519 53.1224 46.483Z" fill="#C09300"/>
<path d="M47.5542 48.0846C48.3263 48.0035 49.0135 48.4302 49.7529 48.5774C50.1307 48.7247 50.7035 48.7202 50.8463 49.183C50.1649 49.4744 49.2649 49.6082 48.6565 49.0898C48.24 48.8148 47.883 48.4603 47.5542 48.0846Z" fill="#C09300"/>
<path d="M33.0247 49.9147C33.1957 49.7194 33.3103 49.4249 33.5855 49.3618C33.6837 49.5225 33.7789 49.6848 33.8696 49.8516C33.5885 49.8831 33.3058 49.9027 33.0247 49.9147Z" fill="#C09300"/>
<path d="M48.2012 58.168C48.3782 57.9562 48.6728 57.9982 48.9167 57.9517C50.507 59.6149 52.0734 61.3157 53.8601 62.7686C54.7526 63.5334 55.6407 64.3192 56.6672 64.8992C57.0644 65.111 57.3768 65.4401 57.6505 65.7947C57.0302 65.8578 56.4083 65.8322 55.7865 65.8382C55.2882 65.09 54.8166 64.2922 54.104 63.7287C53.3037 63.0887 52.667 62.2683 51.8682 61.6283C51.102 61.0062 50.5174 60.1859 49.7245 59.5954C49.7424 60.1874 50.0682 60.6937 50.3969 61.161C51.645 62.8002 53.631 63.8549 54.4462 65.8217C54.1204 65.8307 53.7961 65.8367 53.4718 65.8397C52.7444 64.9187 52.1568 63.894 51.4174 62.982C51.0857 62.6109 50.7212 62.2473 50.266 62.0369C50.3895 62.7461 50.8625 63.311 51.2672 63.8805C51.7625 64.489 52.1865 65.1546 52.6016 65.8217C52.2535 65.8322 51.9053 65.8547 51.5587 65.8292C51.2315 65.4295 51.0827 64.9187 50.8372 64.471C50.1604 63.2239 49.5341 61.9393 48.6683 60.8094C48.5612 60.8109 48.344 60.8139 48.2354 60.8154C48.6148 61.8386 49.0224 62.8588 49.5758 63.8008C49.9982 64.48 50.4624 65.1441 50.7346 65.9043C50.5561 65.9464 50.3761 65.9825 50.1961 66.014C49.6873 65.1125 49.6189 63.8459 48.5969 63.3396C48.7129 64.2501 49.2262 65.0659 49.2529 65.993C48.6237 66.1267 48.4199 65.4881 48.1848 65.0419C47.7252 64.0998 47.3369 63.1187 46.782 62.2292C46.7612 63.4643 47.1108 64.6528 47.5288 65.7977C46.9561 65.4791 46.5172 64.9232 45.8671 64.7564C44.6786 65.1651 43.6536 65.9404 42.5513 66.5354C42.8057 66.1222 43.1091 65.733 43.49 65.431C44.1936 64.9382 45.0549 64.6633 45.6604 64.0337C45.7095 63.0556 45.58 62.0625 45.8106 61.0994C46.1245 61.4465 46.4057 61.8221 46.7091 62.1797C46.7776 61.2466 46.6258 60.294 46.8787 59.3805C47.0379 59.5488 47.1971 59.7201 47.3562 59.8914C47.5481 59.2799 47.7192 58.6203 48.2012 58.168Z" fill="#C09300"/>
<path d="M49.8569 57.8329C50.8045 57.9185 51.7388 58.1229 52.6804 58.2566C54.2231 58.6412 55.2689 59.9409 56.4991 60.8575C57.6297 61.9378 58.7291 63.0586 59.7183 64.2757C58.4583 63.888 57.3084 63.2374 56.2358 62.4772C54.7408 61.6838 53.6459 60.3481 52.2713 59.3895C52.3338 59.7726 52.4722 60.1483 52.7518 60.4262C54.1859 61.9934 56.0142 63.1067 57.8172 64.184C58.677 64.6979 59.702 65.0855 60.2569 65.975C59.4178 65.9224 58.6993 65.4416 57.963 65.084C56.2284 64.0939 54.6396 62.8648 53.1342 61.5516C51.9842 60.3661 50.925 59.0935 49.8569 57.8329Z" fill="#C09300"/>
<path d="M63.345 65.2222C64.2435 65.0043 64.6749 66.6301 63.8344 66.9636C63.2706 67.216 62.625 66.6195 62.6667 66.0366C62.625 65.6384 63.0133 65.3439 63.345 65.2222Z" fill="#C09300"/>
<path d="M26.7947 65.3875C27.1472 65.2658 27.656 65.1967 27.8762 65.5798C28.3343 66.1914 27.7691 67.1305 27.0253 67.0328C26.6727 66.8765 26.4942 66.4889 26.2681 66.1944C26.4272 65.9164 26.5582 65.6099 26.7947 65.3875Z" fill="#C09300"/>
<path d="M30.8469 66.2409C33.6689 66.2168 36.4909 66.2469 39.3114 66.2499C39.3694 66.7562 39.2816 67.3948 39.7086 67.7599C40.1816 67.9042 40.7023 67.9057 41.0995 68.2482C41.9236 67.6262 42.8266 67.1093 43.798 66.7653C44.5195 66.4708 45.2826 66.0561 46.0815 66.286C46.5739 66.5234 47.0633 66.8629 47.6405 66.7698C48.0927 66.8314 48.2742 66.2304 48.713 66.2409C52.4008 66.2078 56.0886 66.2619 59.7763 66.2454C59.0311 67.5931 58.5937 69.1873 58.9582 70.7229C59.2468 72.0225 59.8849 73.208 60.2167 74.4941C50.696 74.5107 41.1768 74.5077 31.6562 74.4956C32.4253 73.0562 33.3208 71.4606 32.9415 69.7628C32.5473 68.439 31.7975 67.231 30.8469 66.2409ZM44.8542 67.8711C44.6147 68.6915 44.2963 69.5013 43.7876 70.1925C41.8686 70.2075 39.9347 70.1699 38.0499 69.7658C37.257 69.617 36.3525 69.33 35.6192 69.8229C35.2235 70.0197 35.2264 70.532 35.0777 70.8971C35.4362 70.7319 35.7798 70.4284 36.1978 70.487C37.6334 70.7995 39.0392 71.2743 40.5059 71.4305C41.6826 71.6198 42.8801 71.5462 44.0673 71.5312C45.4745 71.2968 47.1109 71.118 48.0183 69.8544C48.0749 69.3105 48.1582 68.5998 47.6568 68.2347C46.7687 68.0544 45.961 68.4796 45.2216 68.9183C45.2678 68.3264 45.7557 67.9688 46.0636 67.518C46.1335 67.1724 46.0026 66.8419 45.8851 66.5279C45.479 66.914 45.0089 67.3047 44.8542 67.8711ZM53.823 67.3032C52.9616 68.0469 52.8426 69.282 52.1806 70.1699C51.0501 70.3172 49.8823 70.0482 48.7666 70.3307C47.6018 70.7875 47.1644 72.1202 46.1097 72.7287C45.7319 72.9541 45.3421 73.1599 44.9881 73.4229C45.4954 73.4214 46.0458 73.5521 46.5188 73.3042C47.6568 72.8234 48.3129 71.6935 49.2382 70.9257C49.7097 70.8355 50.1754 70.9963 50.6365 71.0774C51.2568 71.2097 51.901 71.2352 52.5287 71.1541C53.1773 70.6823 53.4347 69.889 53.7307 69.1753C54.0178 68.3564 54.5087 67.6337 54.8182 66.8239C54.4626 66.9245 54.0937 67.0357 53.823 67.3032ZM54.7527 69.1407C54.5325 70.0693 54.2782 70.9933 54.1383 71.9384C54.7319 71.5658 55.0517 70.9107 55.2853 70.2706C55.6661 69.1422 55.8372 67.9582 56.0484 66.7908C55.3968 67.4188 54.961 68.2603 54.7527 69.1407ZM49.8481 67.7103C49.973 67.9357 50.153 68.1235 50.3197 68.3204C50.5487 68.119 50.7897 67.9267 50.9816 67.6878C50.9325 67.4609 50.8195 67.2491 50.6231 67.1244C50.2944 67.2025 50.0668 67.4714 49.8481 67.7103ZM35.521 67.7464C35.3246 67.8365 35.097 67.9462 35.0033 68.1581C34.8426 68.5202 35.338 68.6494 35.6058 68.6314C36.2038 68.6028 36.8539 68.9229 37.3537 68.4466C37.3582 68.2377 37.3611 68.0289 37.3641 67.82C37.0249 67.8501 36.6902 67.9072 36.3525 67.9357C36.0744 67.8771 35.8155 67.5976 35.521 67.7464ZM48.8053 68.693C49.0626 68.8958 49.3081 69.1227 49.6041 69.2714C49.8793 69.2053 50.153 69.1062 50.4282 69.2354C50.7927 69.3856 51.1111 69.0866 51.4279 68.9514C51.3461 68.6479 51.1869 68.382 50.9831 68.1506C50.7734 68.2993 50.5666 68.4526 50.3598 68.6058C50.156 68.4526 49.9492 68.3038 49.741 68.1611C49.4197 68.3204 49.1073 68.5007 48.8053 68.693Z" fill="#C09300"/>
<path d="M59.5263 69.1873C59.3255 68.1926 60.2463 67.2476 61.2162 67.2521C61.3055 68.6614 60.9916 70.206 61.7443 71.4831C61.9065 71.8227 62.2278 72.0285 62.5566 72.1803C62.564 70.8371 61.7696 69.6275 61.8767 68.2753C61.8514 67.8471 62.0508 67.4609 62.2308 67.0883C63.2319 67.4805 63.3673 68.696 63.4625 69.6305C63.4253 71.2277 63.7184 73.0202 62.6949 74.389C61.8842 74.5242 61.3843 73.7414 60.9931 73.1479C60.3088 71.9174 59.7182 70.5951 59.5263 69.1873Z" fill="#C09300"/>
<path d="M28.3075 69.0491C28.5396 68.4255 29.1763 68.0649 29.7832 67.8967C29.7713 69.0911 29.5021 70.3743 30.0525 71.4921C30.2325 71.8933 30.5776 72.1743 30.9108 72.4432C30.9718 71.8482 30.8246 71.2698 30.6401 70.7123C30.3768 69.9506 30.2979 69.1212 30.4303 68.3264C30.4988 67.9778 31.0641 67.8771 31.2099 68.2122C31.6725 68.9514 31.7409 69.8469 31.8257 70.6943C31.8629 71.6409 31.8257 72.604 31.5951 73.525C31.4464 73.9052 31.192 74.4431 30.7055 74.3709C30.35 74.425 30.1403 74.0855 29.9231 73.8646C29.3399 73.0938 28.8981 72.2103 28.6273 71.2788C28.422 70.5576 28.1587 69.8093 28.3075 69.0491Z" fill="#C09300"/>
<path d="M24.1616 74.1681C24.3997 74.0028 24.599 73.7113 24.9084 73.7023C25.383 73.6392 25.8441 74.1065 25.7757 74.5858C25.798 75.0245 25.3458 75.2679 25.0185 75.4512C24.3922 75.4017 24.0783 74.7421 24.1616 74.1681Z" fill="#C09300"/>
<path d="M64.9041 74.4566C65.032 74.084 65.3518 73.6603 65.7907 73.7053C66.2117 73.7068 66.472 74.126 66.6401 74.4656C66.5776 74.8698 66.2786 75.1748 66.0391 75.4828C65.4872 75.4587 64.9502 75.0335 64.9041 74.4566Z" fill="#C09300"/>
<path d="M32.0728 75.8299C33.1186 75.5008 34.2075 75.2454 35.3098 75.2965C38.8652 75.3235 42.1989 76.7659 45.3333 78.33C45.9938 78.626 46.4981 77.9875 47.0693 77.7741C47.9098 77.4406 48.7369 77.0785 49.5611 76.7073C50.952 76.2896 52.2938 75.6511 53.7546 75.5113C54.787 75.3551 55.8298 75.2409 56.8771 75.31C57.9422 75.4377 58.9746 75.7472 60.0234 75.9606C60.6348 76.1199 61.1197 75.6676 61.6419 75.4422C62.7814 75.3265 63.9105 75.9245 64.687 76.7359C64.4088 76.9222 64.1113 77.0815 63.845 77.2858C63.7022 77.6254 63.6516 78.031 63.308 78.2399C61.9573 79.182 60.2659 79.4118 58.6637 79.4509C57.6596 79.3232 56.6168 79.2481 55.6989 78.7793C54.964 78.4142 54.2336 78.0295 53.5612 77.5563C54.6635 77.1821 55.8462 77.2137 56.9812 77.0018C57.2445 76.9553 57.4707 76.808 57.7027 76.6833C56.0336 76.1214 54.2307 76.3558 52.5943 76.9087C51.248 77.4691 49.8571 77.9123 48.5004 78.4457C47.9961 78.6501 47.4427 78.7748 47.0321 79.1564C48.0779 79.8085 49.1921 80.3434 50.232 81.009C50.8136 81.3906 51.5024 81.6325 51.9859 82.1524C52.0558 82.6828 51.8654 83.2012 51.8237 83.727C49.9538 82.1539 47.8949 80.8017 45.7156 79.7123C43.5779 80.7536 41.7318 82.3117 39.7548 83.6264C39.6269 83.1365 39.4677 82.6497 39.4111 82.1464C39.7503 81.8369 40.1579 81.6265 40.5492 81.3951C41.8092 80.6214 43.0721 79.8461 44.3946 79.188C44.2726 78.8694 43.9156 78.7823 43.6404 78.6531C41.8612 78.0055 40.0865 77.3414 38.3029 76.7088C36.8465 76.4624 35.2875 76.0583 33.8669 76.6878C35.1194 77.3309 36.6085 77.0439 37.8968 77.5668C36.9328 78.1558 35.9941 78.8424 34.8918 79.1459C32.6411 79.804 30.1374 79.4434 28.1307 78.2369C27.851 77.9484 27.7796 77.5187 27.5252 77.2137C27.2783 77.0484 26.9986 76.9387 26.7397 76.7945C27.2678 76.0417 28.1902 75.6571 29.0545 75.4497C30.1017 75.2154 31.0464 76.2761 32.0728 75.8299Z" fill="#C09300"/>
<path d="M54.2691 5.24376C54.5592 5.17164 54.8522 5.3264 55.0441 5.54125C55.2078 6.05361 54.5354 6.46229 54.1218 6.16479C53.5476 6.07164 53.8659 5.33992 54.2691 5.24376Z" fill="#BF9300"/>
<path d="M52.0332 9.98867C52.3843 9.49735 53.0553 9.54693 53.4331 9.97364C53.326 10.7459 52.1567 10.7564 52.0332 9.98867Z" fill="#BF9300"/>
<path d="M27.9653 13.0042C28.2078 12.7743 28.5038 12.6211 28.7865 12.4498C29.029 12.6661 29.2595 12.8945 29.4767 13.1379C29.2387 13.2897 29.0245 13.5105 28.7404 13.5691C28.3967 13.5781 28.0457 13.3528 27.9653 13.0042Z" fill="#BF9300"/>
<path d="M34.9512 36.9737C35.277 37.1104 35.6771 37.169 35.9003 37.474C36.3183 37.9969 36.708 38.5603 36.9044 39.2109C35.8631 38.975 35.1818 37.9728 34.9512 36.9737Z" fill="#BF9300"/>
<path d="M35.3259 40.2131C36.3464 40.2311 37.2896 40.9132 37.7626 41.8072C36.7213 41.8493 35.5863 41.3084 35.3259 40.2131Z" fill="#BF9300"/>
<path d="M53.6876 10.0382C53.9895 9.77681 54.4655 10.0217 54.6782 10.3087C54.6202 10.8766 53.6876 11.1155 53.4615 10.5491C53.2993 10.3718 53.6028 10.184 53.6876 10.0382Z" fill="#BF9200"/>
<path d="M48.5361 33.5675C49.152 32.8928 49.7738 32.2032 50.5801 31.754C50.4745 32.5788 49.8899 33.2189 49.2576 33.6967C48.7206 34.0873 48.2713 34.6553 47.5945 34.8025C47.6837 34.2466 48.1999 33.9611 48.5361 33.5675Z" fill="#BF9200"/>
<path d="M35.3766 38.709C36.0951 39.1042 36.8314 39.588 37.19 40.3618C36.5101 40.2807 35.8526 39.9621 35.4257 39.4107C35.39 39.1778 35.3751 38.9449 35.3766 38.709Z" fill="#BF9200"/>
<path d="M49.1504 41.8568C49.7157 41.5353 50.2319 41.1326 50.8121 40.8366C50.7779 41.1326 50.9132 41.5052 50.6559 41.7306C50.0683 42.3752 49.137 42.4969 48.3188 42.572C48.5524 42.2865 48.8276 42.0341 49.1504 41.8568Z" fill="#BF9200"/>
<path d="M48.188 43.6763C48.8068 43.1144 49.6235 42.8664 50.3614 42.5073C50.7303 42.3541 50.7913 42.7883 50.8448 43.0528C50.0802 43.5892 49.1014 43.756 48.188 43.6763Z" fill="#BF9200"/>
<path d="M51.5678 44.4757C52.8145 44.2247 53.9376 43.6177 55.0117 42.9551C54.973 43.2601 54.9254 43.5636 54.8778 43.8671C53.6341 44.4111 52.4113 45.1232 51.0427 45.272C51.1409 44.9655 51.1498 44.4922 51.5678 44.4757Z" fill="#BF9200"/>
<path d="M36.6204 43.2947C37.4668 43.2211 38.4085 43.457 38.941 44.1722C38.4546 44.2082 37.925 44.2638 37.4876 43.9964C37.1737 43.7965 36.8926 43.5471 36.6204 43.2947Z" fill="#BF9200"/>
<path d="M37.2808 44.8167C37.2154 44.3525 37.8491 44.5132 38.1332 44.4907C38.6881 44.6019 39.3932 44.6319 39.7265 45.1637C38.9053 45.2028 38.0053 45.2974 37.2808 44.8167Z" fill="#BF9200"/>
<path d="M37.1544 45.4478C38.4843 45.6641 39.9035 45.4072 41.162 45.9992C41.6872 46.3102 42.1319 46.7459 42.6749 47.0314C43.2685 47.3635 43.9751 47.3695 44.588 47.6505C45.0923 47.9765 45.4657 48.4678 45.9566 48.8134C46.4981 49.2641 47.2166 49.5121 47.5989 50.1386C46.1901 50.0845 45.4047 48.7368 44.2726 48.0952C44.0688 48.1793 43.8724 48.283 43.6597 48.3386C42.6467 47.7511 41.7422 46.9413 40.6176 46.5702C39.7086 46.3433 38.767 46.2832 37.8358 46.2441C37.4103 46.205 37.0265 46.4094 36.6353 46.5416C36.8004 46.172 36.9848 45.8129 37.1544 45.4478Z" fill="#BF9200"/>
<path d="M45.5698 47.3845C46.1902 47.362 46.51 47.9314 46.9116 48.3055C47.4219 48.8765 48.313 48.9531 48.6685 49.6893C47.8399 49.6142 47.0173 49.2536 46.4996 48.579C46.205 48.1688 45.8792 47.7827 45.5698 47.3845Z" fill="#BF9200"/>
<path d="M31.0389 52.8251C30.426 51.9055 30.9883 50.6029 31.9909 50.2663C31.7306 51.1393 31.3498 51.9702 31.0389 52.8251Z" fill="#BF9200"/>
<path d="M20.3147 11.9284C20.5453 11.7932 20.7714 11.6459 21.0198 11.5468C21.2802 11.5858 21.5122 11.718 21.7532 11.8157C21.6223 12.0862 21.5554 12.573 21.1582 12.5174C20.7387 12.6271 20.5319 12.2034 20.3147 11.9284Z" fill="#BF9200"/>
<path d="M32.2778 40.6262C33.1302 40.8396 33.9112 41.2663 34.7577 41.4932C35.0716 41.5939 35.4241 41.6705 35.6473 41.9379C35.7871 42.1483 35.7692 42.4187 35.8243 42.6591C34.8871 42.5059 33.9127 42.3556 33.0945 41.8358C32.6706 41.5653 32.4281 41.095 32.2778 40.6262Z" fill="#C09300"/>
<path d="M36.1116 41.9439C36.958 42.0791 38.0023 42.2594 38.3608 43.1715C37.4519 43.1775 36.5757 42.7478 36.1116 41.9439Z" fill="#BF9200"/>
<path d="M48.2549 47.661C48.4334 47.5408 48.5717 47.2012 48.8261 47.3484C50.0846 47.8548 51.4651 47.8578 52.7891 48.0561C52.1122 48.5865 51.2063 48.573 50.406 48.4062C49.6503 48.2875 48.9645 47.9284 48.2549 47.661Z" fill="#BF9200"/>
<path d="M45.0491 70.1594C45.3258 69.5434 45.9491 69.2219 46.5367 68.98C46.5575 69.1994 46.5768 69.4187 46.5917 69.6411C46.1216 69.925 45.5965 70.1023 45.0491 70.1594Z" fill="#BF9200"/>
<path d="M47.2476 46.0157C48.0821 45.9225 48.9152 46.1674 49.6992 46.4334C49.5162 46.5911 49.3347 46.7519 49.1294 46.8811C48.4779 46.6753 47.7474 46.5205 47.2476 46.0157Z" fill="#BE9200"/>
<path opacity="0.98" d="M46.4832 46.9608C47.044 46.6919 47.6851 46.6889 48.1805 47.1065C47.6494 47.3529 46.8922 47.4971 46.4832 46.9608Z" fill="#BC9000"/>
</g>
<defs>
<clipPath id="clip0_425_2718">
<rect width="90" height="90" fill="white"/>
</clipPath>
</defs>
</svg>
