<svg width="16" height="19" viewBox="0 0 16 19" fill="none" xmlns="http://www.w3.org/2000/svg">
<path d="M8.0002 3.00003V1.21003C8.0002 0.760031 7.46019 0.54003 7.15019 0.86003L4.3502 3.65003C4.1502 3.85003 4.1502 4.16003 4.3502 4.36003L7.1402 7.15003C7.4602 7.46003 8.0002 7.24003 8.0002 6.79003V5.00003C11.3102 5.00003 14.0002 7.69003 14.0002 11C14.0002 13.72 12.1702 16.02 9.69019 16.75C9.27019 16.87 9.0002 17.27 9.0002 17.7C9.0002 18.35 9.6202 18.86 10.2502 18.67C13.5702 17.7 16.0002 14.64 16.0002 11C16.0002 6.58003 12.4202 3.00003 8.0002 3.00003Z" fill="black"/>
<path d="M2 11.0001C2 9.66009 2.44 8.42009 3.19 7.41009C3.49 7.01009 3.45 6.46009 3.1 6.10009C2.68 5.68009 1.96 5.72009 1.6 6.20009C0.6 7.54009 0 9.20009 0 11.0001C0 14.6401 2.43 17.7001 5.75 18.6701C6.38 18.8601 7 18.3501 7 17.7001C7 17.2701 6.73 16.8701 6.31 16.7501C3.83 16.0201 2 13.7201 2 11.0001Z" fill="black"/>
</svg>
