<svg width="20" height="20" viewBox="0 0 20 20" fill="none" xmlns="http://www.w3.org/2000/svg">
<path d="M2.77747 20C3.05042 19.9999 3.31722 19.9188 3.54415 19.7669C3.77107 19.6149 3.94794 19.399 4.05238 19.1464C4.15683 18.8938 4.18416 18.6158 4.13093 18.3477C4.07769 18.0795 3.94628 17.8331 3.75331 17.6398L2.37306 16.2571C2.11274 16.0052 1.76408 15.8659 1.40218 15.869C1.04028 15.8722 0.6941 16.0176 0.438189 16.2739C0.182279 16.5303 0.0371187 16.8771 0.0339739 17.2396C0.030829 17.6022 0.169951 17.9514 0.421376 18.2122L1.80163 19.5949C2.06042 19.8542 2.41143 19.9999 2.77747 20ZM10.5593 20C10.8323 19.9999 11.0991 19.9188 11.326 19.7669C11.553 19.6149 11.7298 19.399 11.8343 19.1464C11.9387 18.8938 11.966 18.6158 11.9128 18.3477C11.8596 18.0795 11.7282 17.8331 11.5352 17.6398L2.37306 8.46157C2.24573 8.32951 2.09343 8.22418 1.92503 8.15171C1.75664 8.07925 1.57552 8.04111 1.39225 8.03951C1.20898 8.03792 1.02723 8.0729 0.8576 8.14242C0.687971 8.21194 0.533863 8.31461 0.404267 8.44444C0.274672 8.57426 0.172183 8.72864 0.102783 8.89856C0.0333824 9.06849 -0.00154045 9.25056 5.21139e-05 9.43415C0.00164467 9.61774 0.0397206 9.79917 0.112058 9.96786C0.184396 10.1366 0.289547 10.2891 0.421376 10.4167L9.58351 19.5949C9.71214 19.7238 9.86494 19.8259 10.0331 19.8954C10.2013 19.965 10.3815 20.0005 10.5635 20H10.5593ZM18.62 20C18.893 19.9999 19.1598 19.9188 19.3867 19.7669C19.6136 19.6149 19.7905 19.399 19.895 19.1464C19.9994 18.8938 20.0267 18.6158 19.9735 18.3477C19.9203 18.0795 19.7889 17.8331 19.5959 17.6398L2.37306 0.388133C2.11274 0.136268 1.76408 -0.00309804 1.40218 5.22688e-05C1.04028 0.00320258 0.6941 0.148617 0.438189 0.404976C0.182279 0.661335 0.0371187 1.00813 0.0339739 1.37066C0.030829 1.73319 0.169951 2.08246 0.421376 2.34324L17.6428 19.5949C17.7711 19.7234 17.9235 19.8254 18.0912 19.8949C18.2588 19.9644 18.4386 20.0001 18.62 20Z" fill="#494C4E"/>
</svg>
