<svg width="34" height="38" viewBox="0 0 34 38" fill="none" xmlns="http://www.w3.org/2000/svg">
<path d="M9.66667 30.0001C10.675 30.0001 11.5 29.1751 11.5 28.1667V9.83342C11.5 8.82508 10.675 8.00008 9.66667 8.00008C8.65833 8.00008 7.83333 8.82508 7.83333 9.83342V28.1667C7.83333 29.1751 8.65833 30.0001 9.66667 30.0001ZM17 37.3334C18.0083 37.3334 18.8333 36.5084 18.8333 35.5001V2.50008C18.8333 1.49175 18.0083 0.666748 17 0.666748C15.9917 0.666748 15.1667 1.49175 15.1667 2.50008V35.5001C15.1667 36.5084 15.9917 37.3334 17 37.3334ZM2.33333 22.6667C3.34167 22.6667 4.16667 21.8417 4.16667 20.8334V17.1667C4.16667 16.1584 3.34167 15.3334 2.33333 15.3334C1.325 15.3334 0.5 16.1584 0.5 17.1667V20.8334C0.5 21.8417 1.325 22.6667 2.33333 22.6667ZM24.3333 30.0001C25.3417 30.0001 26.1667 29.1751 26.1667 28.1667V9.83342C26.1667 8.82508 25.3417 8.00008 24.3333 8.00008C23.325 8.00008 22.5 8.82508 22.5 9.83342V28.1667C22.5 29.1751 23.325 30.0001 24.3333 30.0001ZM29.8333 17.1667V20.8334C29.8333 21.8417 30.6583 22.6667 31.6667 22.6667C32.675 22.6667 33.5 21.8417 33.5 20.8334V17.1667C33.5 16.1584 32.675 15.3334 31.6667 15.3334C30.6583 15.3334 29.8333 16.1584 29.8333 17.1667Z" fill="url(#paint0_linear_664_5735)"/>
<path d="M9.66667 30.0001C10.675 30.0001 11.5 29.1751 11.5 28.1667V9.83342C11.5 8.82508 10.675 8.00008 9.66667 8.00008C8.65833 8.00008 7.83333 8.82508 7.83333 9.83342V28.1667C7.83333 29.1751 8.65833 30.0001 9.66667 30.0001ZM17 37.3334C18.0083 37.3334 18.8333 36.5084 18.8333 35.5001V2.50008C18.8333 1.49175 18.0083 0.666748 17 0.666748C15.9917 0.666748 15.1667 1.49175 15.1667 2.50008V35.5001C15.1667 36.5084 15.9917 37.3334 17 37.3334ZM2.33333 22.6667C3.34167 22.6667 4.16667 21.8417 4.16667 20.8334V17.1667C4.16667 16.1584 3.34167 15.3334 2.33333 15.3334C1.325 15.3334 0.5 16.1584 0.5 17.1667V20.8334C0.5 21.8417 1.325 22.6667 2.33333 22.6667ZM24.3333 30.0001C25.3417 30.0001 26.1667 29.1751 26.1667 28.1667V9.83342C26.1667 8.82508 25.3417 8.00008 24.3333 8.00008C23.325 8.00008 22.5 8.82508 22.5 9.83342V28.1667C22.5 29.1751 23.325 30.0001 24.3333 30.0001ZM29.8333 17.1667V20.8334C29.8333 21.8417 30.6583 22.6667 31.6667 22.6667C32.675 22.6667 33.5 21.8417 33.5 20.8334V17.1667C33.5 16.1584 32.675 15.3334 31.6667 15.3334C30.6583 15.3334 29.8333 16.1584 29.8333 17.1667Z" fill="white"/>
<defs>
<linearGradient id="paint0_linear_664_5735" x1="30.6082" y1="-0.399144" x2="-14.5722" y2="12.2429" gradientUnits="userSpaceOnUse">
<stop stop-color="#153E9B"/>
<stop offset="1" stop-color="#0D3770"/>
</linearGradient>
</defs>
</svg>
