<svg width="20" height="20" viewBox="0 0 20 20" fill="none" xmlns="http://www.w3.org/2000/svg">
<path d="M18.0929 20C17.6797 19.8933 17.4362 19.566 17.1612 19.283C16.2218 18.3153 15.2862 17.3437 14.3498 16.373C13.8659 15.8714 13.3801 15.3709 12.9021 14.8638C12.7972 14.7528 12.7179 14.7395 12.5887 14.8271C11.5942 15.4988 10.496 15.9151 9.30984 16.0872C7.7266 16.3167 6.20149 16.1087 4.74511 15.4354C3.1489 14.6973 1.91247 13.567 1.04407 12.0465C0.397573 10.9142 0.0503669 9.6948 0.00519869 8.38778C-0.0438971 6.9584 0.254213 5.6115 0.922309 4.34828C1.59669 3.07293 2.54679 2.04624 3.76751 1.26938C4.80167 0.610989 5.92773 0.196169 7.14688 0.0585476C8.72109 -0.119344 10.2383 0.100772 11.6578 0.820158C14.219 2.11818 15.7555 4.18993 16.1624 7.01861C16.4825 9.24362 15.8969 11.2696 14.5148 13.0571C14.3486 13.2722 14.3475 13.2694 14.5309 13.4595C16.0207 15.0011 17.4943 16.5579 19.0069 18.0768C19.618 18.6906 19.521 19.6872 18.6023 19.9996H18.0929V20ZM8.11976 14.0213C11.4072 14.0213 14.089 11.3607 14.082 8.09065C14.0745 4.84481 11.4972 2.16119 8.12801 2.15298C4.81227 2.14477 2.15756 4.77443 2.15835 8.0926C2.15913 11.4401 4.87983 14.0221 8.11976 14.0213Z" fill="white"/>
</svg>
