<svg width="11" height="12" viewBox="0 0 11 12" fill="none" xmlns="http://www.w3.org/2000/svg">
<path fill-rule="evenodd" clip-rule="evenodd" d="M3.62036 1.7373C3.62036 1.04695 4.18 0.487305 4.87036 0.487305H6.12036C6.81074 0.487305 7.37036 1.04695 7.37036 1.7373V2.3623H8.62036H9.87036C10.2155 2.3623 10.4954 2.64213 10.4954 2.9873C10.4954 3.33248 10.2155 3.6123 9.87036 3.6123H9.24536V9.8623C9.24536 10.8979 8.40592 11.7373 7.37036 11.7373H3.62036C2.58483 11.7373 1.74536 10.8979 1.74536 9.8623V3.6123H1.12036C0.775186 3.6123 0.495361 3.33248 0.495361 2.9873C0.495361 2.64213 0.775186 2.3623 1.12036 2.3623H2.37036H3.62036V1.7373ZM4.24536 3.6123H2.99536V9.8623C2.99536 10.2075 3.27519 10.4873 3.62036 10.4873H7.37036C7.71555 10.4873 7.99536 10.2075 7.99536 9.8623V3.6123H6.74536H4.24536ZM6.12036 2.3623H4.87036V1.7373H6.12036V2.3623ZM4.24536 4.2373C4.59055 4.2373 4.87036 4.51713 4.87036 4.8623V9.2373C4.87036 9.58249 4.59055 9.8623 4.24536 9.8623C3.90019 9.8623 3.62036 9.58249 3.62036 9.2373V4.8623C3.62036 4.51713 3.90019 4.2373 4.24536 4.2373ZM6.74536 4.2373C7.09055 4.2373 7.37036 4.51713 7.37036 4.8623V9.2373C7.37036 9.58249 7.09055 9.8623 6.74536 9.8623C6.40017 9.8623 6.12036 9.58249 6.12036 9.2373V4.8623C6.12036 4.51713 6.40017 4.2373 6.74536 4.2373Z" fill="url(#paint0_linear_114_830)"/>
<defs>
<linearGradient id="paint0_linear_114_830" x1="18.8534" y1="2.99715" x2="-17.8949" y2="6.31526" gradientUnits="userSpaceOnUse">
<stop stop-color="#BE594F"/>
<stop offset="1" stop-color="#901005"/>
</linearGradient>
</defs>
</svg>
