<svg width="54" height="54" viewBox="0 0 54 54" fill="none" xmlns="http://www.w3.org/2000/svg">
<rect width="54" height="54" rx="27" fill="url(#paint0_linear_1413_5789)"/>
<rect width="54" height="54" rx="27" fill="url(#paint1_linear_1413_5789)"/>
<path fill-rule="evenodd" clip-rule="evenodd" d="M23.0976 27C23.0976 29.1333 24.8439 30.8691 27 30.8691C29.1463 30.8691 30.8927 29.1333 30.8927 27C30.8927 24.857 29.1463 23.1212 27 23.1212C24.8439 23.1212 23.0976 24.857 23.0976 27ZM32.7366 21.0461C34.4439 22.3649 35.8976 24.2945 36.9415 26.7091C37.0195 26.8933 37.0195 27.1067 36.9415 27.2812C34.8537 32.1103 31.1366 35 27 35H26.9902C22.8634 35 19.1463 32.1103 17.0585 27.2812C16.9805 27.1067 16.9805 26.8933 17.0585 26.7091C19.1463 21.88 22.8634 19 26.9902 19H27C29.0683 19 31.0293 19.7176 32.7366 21.0461ZM27.0012 29.4124C28.3378 29.4124 29.4304 28.3264 29.4304 26.9979C29.4304 25.6597 28.3378 24.5736 27.0012 24.5736C26.8841 24.5736 26.767 24.5833 26.6597 24.6027C26.6207 25.6694 25.7426 26.5227 24.6597 26.5227H24.6109C24.5817 26.6779 24.5621 26.833 24.5621 26.9979C24.5621 28.3264 25.6548 29.4124 27.0012 29.4124Z" fill="white"/>
<defs>
<linearGradient id="paint0_linear_1413_5789" x1="49.268" y1="-1.56977" x2="-23.4255" y2="21.0308" gradientUnits="userSpaceOnUse">
<stop stop-color="#153E9B"/>
<stop offset="1" stop-color="#0D3770"/>
</linearGradient>
<linearGradient id="paint1_linear_1413_5789" x1="49.268" y1="-1.56977" x2="-23.4255" y2="21.0308" gradientUnits="userSpaceOnUse">
<stop stop-color="#BE594F"/>
<stop offset="1" stop-color="#911005"/>
</linearGradient>
</defs>
</svg>
