<svg width="51" height="51" viewBox="0 0 51 51" fill="none" xmlns="http://www.w3.org/2000/svg">
<path opacity="0.2" d="M42.7429 0.780029H8.74292C4.60078 0.780029 1.24292 4.13789 1.24292 8.28003V42.28C1.24292 46.4222 4.60078 49.78 8.74292 49.78H42.7429C46.8851 49.78 50.2429 46.4222 50.2429 42.28V8.28003C50.2429 4.13789 46.8851 0.780029 42.7429 0.780029Z" stroke="white"/>
<path d="M29.744 23.963L24 20.82C23.67 20.639 23.279 20.646 22.955 20.838C22.632 21.03 22.438 21.369 22.438 21.746V27.977C22.438 28.352 22.63 28.691 22.952 28.883C23.12 28.983 23.306 29.034 23.493 29.034C23.664 29.034 23.835 28.992 23.993 28.907L29.737 25.818C30.078 25.634 30.291 25.28 30.293 24.893C30.294 24.505 30.084 24.149 29.744 23.963ZM23.962 27.194V22.536L28.255 24.885L23.962 27.194Z" fill="white"/>
<path d="M38.5519 19.928L38.5499 19.916C38.5279 19.707 38.3089 17.845 37.4039 16.898C36.3579 15.785 35.1729 15.65 34.6019 15.585C34.5549 15.579 34.5119 15.574 34.4729 15.569L34.4279 15.564C30.9899 15.315 25.7989 15.28 25.7479 15.28H25.7429H25.7379C25.6859 15.28 20.4949 15.315 17.0269 15.564L16.9809 15.569C16.9449 15.574 16.9039 15.579 16.8599 15.584C16.2959 15.649 15.1229 15.784 14.0739 16.938C13.2119 17.875 12.9629 19.697 12.9369 19.901L12.9339 19.928C12.9259 20.015 12.7429 22.088 12.7429 24.169V26.1151C12.7429 28.1961 12.9259 30.269 12.9339 30.356L12.9359 30.3701C12.9579 30.5751 13.1769 32.403 14.0769 33.35C15.0609 34.426 16.3039 34.569 16.9729 34.645C17.0789 34.657 17.1699 34.668 17.2319 34.679L17.2919 34.687C19.2769 34.876 25.4989 34.969 25.7629 34.973H25.7709H25.7789C25.8309 34.972 31.0219 34.938 34.4589 34.688L34.5039 34.684C34.5479 34.678 34.5969 34.6731 34.6499 34.6671C35.2109 34.6081 36.3779 34.484 37.4119 33.346C38.2739 32.409 38.5229 30.5871 38.5489 30.3831L38.5519 30.356C38.5589 30.269 38.7429 28.1961 38.7429 26.1151V24.169C38.7429 22.088 38.5589 20.015 38.5519 19.928ZM37.2189 26.1151C37.2189 28.0411 37.0509 30.025 37.0349 30.207C36.9709 30.709 36.7079 31.8611 36.2879 32.3181C35.6399 33.0301 34.9749 33.101 34.4899 33.152C34.4309 33.158 34.3769 33.164 34.3269 33.17C31.0029 33.411 26.0079 33.448 25.7779 33.449C25.5199 33.445 19.3879 33.351 17.4639 33.173C17.3649 33.157 17.2589 33.144 17.1469 33.132C16.5769 33.066 15.7979 32.9771 15.1979 32.3181L15.1839 32.303C14.7709 31.873 14.5159 30.795 14.4509 30.213C14.4389 30.075 14.2669 28.0681 14.2669 26.1151V24.169C14.2669 22.245 14.4339 20.264 14.4509 20.078C14.5279 19.487 14.7959 18.404 15.1979 17.966C15.8649 17.232 16.5689 17.151 17.0339 17.097C17.0789 17.092 17.1199 17.087 17.1589 17.083C20.5319 16.841 25.5619 16.805 25.7429 16.804C25.9229 16.805 30.9529 16.841 34.2959 17.083C34.3369 17.088 34.3809 17.093 34.4299 17.098C34.9079 17.153 35.6319 17.235 36.2959 17.944L36.3019 17.95C36.7139 18.38 36.9699 19.477 37.0349 20.07C37.0459 20.2 37.2189 22.212 37.2189 24.169V26.1151Z" fill="white"/>
</svg>
